<svg width="44" height="44" viewBox="0 0 44 44" fill="none" xmlns="http://www.w3.org/2000/svg">
<circle cx="22" cy="22" r="20.5" fill="white" stroke="#F6A2A3" stroke-width="3"/>
<path d="M22 33.6667C22.7793 33.6667 23.379 31.4792 24.1151 31.3334C24.8735 31.1835 25.7677 33.0711 26.466 32.7818C27.1759 32.4872 26.9035 30.6725 27.5341 30.2501C28.1705 29.8243 29.7099 30.7891 30.2495 30.2501C30.7891 29.7105 29.3873 27.8865 29.8131 27.25C30.2361 26.6189 32.4871 27.176 32.7817 26.466C33.0711 25.7678 30.8544 24.3993 31.0043 23.641C31.1501 22.9042 33.6666 22.7794 33.6666 22C33.6666 21.2213 31.4791 20.46 31.3333 19.7233C31.1834 18.965 33.0711 18.2323 32.7817 17.5346C32.4871 16.8241 30.2361 17.3812 29.8131 16.75C29.3873 16.1142 30.7891 14.2901 30.2495 13.7505C29.7099 13.211 27.8864 14.3875 27.25 13.9617C26.6188 13.5394 27.1759 11.514 26.4654 11.2195C25.7683 10.9295 24.5083 12.6113 23.75 12.4614C23.0138 12.315 22.7793 10.3334 22 10.3334C21.2206 10.3334 20.9033 12.3155 20.1671 12.4608C19.4088 12.6113 18.2322 10.9295 17.5346 11.2183C16.8241 11.5135 17.3811 13.3282 16.75 13.7505C16.1141 14.1764 14.2901 13.211 13.7505 13.7505C13.2109 14.2901 14.7229 16.1142 14.2971 16.75C13.8741 17.3812 11.5128 16.8241 11.2182 17.5346C10.9289 18.2317 12.8166 19.2234 12.6666 19.9817C12.5208 20.7179 10.3333 21.2213 10.3333 22C10.3333 22.7794 12.7232 23.1241 12.8691 23.8609C13.019 24.6192 10.9289 25.7684 11.2182 26.466C11.5128 27.176 13.7207 26.6189 14.1431 27.25C14.5689 27.8859 13.2109 29.7105 13.7505 30.2495C14.2901 30.7885 16.1136 29.4988 16.75 29.9246C17.3811 30.3475 16.8241 32.4872 17.5346 32.7818C18.2322 33.0711 19.4082 31.1835 20.1671 31.3334C20.9033 31.4792 21.2206 33.6667 22 33.6667Z" stroke="#DF8A8C" stroke-width="2.4" stroke-linejoin="round"/>
<path d="M24.9166 24.9167C25.5355 24.9167 26.129 24.6708 26.5666 24.2332C27.0041 23.7957 27.25 23.2022 27.25 22.5833C27.25 21.9645 27.0041 21.371 26.5666 20.9334C26.129 20.4958 25.5355 20.25 24.9166 20.25C24.2978 20.25 23.7043 20.4958 23.2667 20.9334C22.8291 21.371 22.5833 21.9645 22.5833 22.5833C22.5833 23.2022 22.8291 23.7957 23.2667 24.2332C23.7043 24.6708 24.2978 24.9167 24.9166 24.9167Z" stroke="#DF8A8C" stroke-width="2.4" stroke-linejoin="round"/>
<path d="M17.625 23.1667C18.0117 23.1667 18.3827 23.013 18.6562 22.7395C18.9296 22.466 19.0833 22.0951 19.0833 21.7083C19.0833 21.3216 18.9296 20.9506 18.6562 20.6771C18.3827 20.4036 18.0117 20.25 17.625 20.25C17.2382 20.25 16.8673 20.4036 16.5938 20.6771C16.3203 20.9506 16.1666 21.3216 16.1666 21.7083C16.1666 22.0951 16.3203 22.466 16.5938 22.7395C16.8673 23.013 17.2382 23.1667 17.625 23.1667Z" fill="#DF8A8C"/>
</svg>
