<svg width="44" height="44" viewBox="0 0 44 44" fill="none" xmlns="http://www.w3.org/2000/svg">
<circle cx="22" cy="22" r="20.5" fill="white" stroke="#A6C26D" stroke-width="3"/>
<path d="M31.4617 28.405L25.5 18.185V12.6667H26.6667C26.9761 12.6667 27.2729 12.5438 27.4917 12.325C27.7104 12.1062 27.8334 11.8095 27.8334 11.5C27.8334 11.1906 27.7104 10.8939 27.4917 10.6751C27.2729 10.4563 26.9761 10.3334 26.6667 10.3334H17.3334C17.0239 10.3334 16.7272 10.4563 16.5084 10.6751C16.2896 10.8939 16.1667 11.1906 16.1667 11.5C16.1667 11.8095 16.2896 12.1062 16.5084 12.325C16.7272 12.5438 17.0239 12.6667 17.3334 12.6667H18.5V18.185L12.5384 28.405C12.2287 28.9367 12.0646 29.5406 12.0627 30.1559C12.0608 30.7712 12.2211 31.3761 12.5276 31.9097C12.834 32.4433 13.2756 32.8866 13.808 33.1951C14.3404 33.5036 14.9447 33.6662 15.56 33.6667H28.3934C29.0087 33.6662 29.613 33.5036 30.1453 33.1951C30.6777 32.8866 31.1194 32.4433 31.4258 31.9097C31.7322 31.3761 31.8926 30.7712 31.8907 30.1559C31.8888 29.5406 31.7247 28.9367 31.415 28.405H31.4617ZM20.67 19.0717C20.7729 18.8985 20.8292 18.7015 20.8334 18.5V12.6667H23.1667V18.5C23.1688 18.7055 23.2252 18.9067 23.33 19.0834L24.3334 20.8334H19.6667L20.67 19.0717ZM29.4434 30.7384C29.3416 30.9147 29.1954 31.0613 29.0194 31.1637C28.8434 31.266 28.6436 31.3205 28.44 31.3217H15.6067C15.4031 31.3205 15.2034 31.266 15.0273 31.1637C14.8513 31.0613 14.7052 30.9147 14.6034 30.7384C14.501 30.561 14.4471 30.3598 14.4471 30.155C14.4471 29.9502 14.501 29.7491 14.6034 29.5717L18.3017 23.1667H25.71L29.4434 29.5834C29.5458 29.7607 29.5997 29.9619 29.5997 30.1667C29.5997 30.3715 29.5458 30.5727 29.4434 30.75V30.7384ZM19.6667 25.5C19.4359 25.5 19.2104 25.5685 19.0185 25.6967C18.8267 25.8249 18.6771 26.0071 18.5888 26.2202C18.5005 26.4334 18.4774 26.668 18.5224 26.8943C18.5675 27.1206 18.6786 27.3285 18.8417 27.4917C19.0049 27.6548 19.2128 27.7659 19.4391 27.811C19.6654 27.856 19.9 27.8329 20.1132 27.7446C20.3263 27.6563 20.5085 27.5067 20.6367 27.3149C20.7649 27.123 20.8334 26.8975 20.8334 26.6667C20.8334 26.3573 20.7104 26.0605 20.4917 25.8418C20.2729 25.623 19.9761 25.5 19.6667 25.5ZM24.3334 26.6667C24.1026 26.6667 23.8771 26.7351 23.6852 26.8633C23.4933 26.9915 23.3438 27.1737 23.2555 27.3869C23.1672 27.6001 23.1441 27.8347 23.1891 28.061C23.2341 28.2873 23.3452 28.4952 23.5084 28.6583C23.6716 28.8215 23.8794 28.9326 24.1058 28.9776C24.3321 29.0226 24.5666 28.9995 24.7798 28.9112C24.993 28.8229 25.1752 28.6734 25.3034 28.4815C25.4316 28.2897 25.5 28.0641 25.5 27.8334C25.5 27.524 25.3771 27.2272 25.1583 27.0084C24.9395 26.7896 24.6428 26.6667 24.3334 26.6667Z" fill="#88A452" stroke="#88A452" stroke-width="0.6"/>
</svg>
