<svg width="44" height="44" viewBox="0 0 44 44" fill="none" xmlns="http://www.w3.org/2000/svg">
<circle cx="22" cy="22" r="20.5" fill="white" stroke="#B56565" stroke-width="3"/>
<path opacity="0.65" fill-rule="evenodd" clip-rule="evenodd" d="M27.1514 8.0151C27.8051 7.91227 28.4232 8.34501 28.5502 8.99455C28.7923 10.633 28.8587 12.3429 28.3294 13.9364C28.7429 13.9826 29.1793 14.0809 29.6395 14.2451C31.7368 14.9933 32.9812 16.6738 33.6857 18.3823C33.8526 18.7872 33.7917 19.2503 33.5259 19.5983C33.26 19.9463 32.8293 20.1268 32.3948 20.0722C30.7205 19.8619 29.6875 21.6768 29.6875 23.133C29.6875 24.6022 30.7477 26.4375 32.4367 26.188C32.8637 26.125 33.2925 26.2904 33.5667 26.6238C33.8409 26.9571 33.9204 27.4097 33.7761 27.8166C32.6458 31.0048 30.4409 34.0803 27.8579 35.6243C27.087 36.0849 26.3184 36.1318 25.6181 35.9635C25.0465 35.8261 24.5262 35.5465 24.0145 35.2657C23.2872 34.8673 22.8191 34.6369 22.3047 34.6369C21.7902 34.6369 21.3222 34.8673 20.5948 35.2657C20.0832 35.5465 19.5629 35.8261 18.9912 35.9635C18.2911 36.1318 17.5223 36.0849 16.7515 35.6243C14.8583 34.4926 13.1843 32.548 11.988 30.3795C10.7889 28.206 10 25.6823 10 23.3094C10 21.9193 10.226 20.0686 10.9286 18.3704C11.6338 16.6661 12.8774 14.9916 14.9699 14.2451C17.3968 13.3793 19.1629 14.3453 20.3842 15.1173C20.3999 13.9457 20.5962 12.3299 21.4881 11.056C22.723 9.29239 25.0748 8.34281 27.1514 8.0151ZM15.7968 16.563C17.22 16.0552 18.132 16.5961 19.3776 17.3946C20.2663 17.9663 21.2109 18.5422 22.3047 18.5422C23.3985 18.5422 24.3431 17.9663 25.2318 17.3946C26.4773 16.5961 27.3894 16.0552 28.8126 16.563C29.5318 16.8196 30.1169 17.2736 30.5875 17.8731C28.5536 18.6264 27.2266 20.8114 27.2266 23.133C27.2266 25.5481 28.6625 27.8152 30.8363 28.4768C29.7754 30.6692 27.2266 33.3708 26.5952 33.5119C26.1058 33.6213 25.5574 33.3049 25.197 33.1076C24.2948 32.6123 23.3571 32.176 22.3047 32.176C21.1082 32.176 20.1296 32.7136 19.4816 33.0696C19.098 33.2801 18.4698 33.7842 18.0141 33.5119C16.5972 32.665 15.195 31.098 14.1427 29.1908C13.0932 27.2883 12.4609 25.172 12.4609 23.3094C12.4609 22.143 12.6563 20.6315 13.2026 19.3113C13.7463 17.9973 14.5791 16.9974 15.7968 16.563ZM25.6138 13.9448C24.986 14.8413 23.8623 15.3192 22.8509 15.6454C22.8115 14.5834 22.8762 13.3641 23.504 12.4675C24.1318 11.571 25.2555 11.093 26.2668 10.7669C26.3063 11.8288 26.2416 13.0482 25.6138 13.9448Z" fill="#8E1212"/>
</svg>
