<svg width="44" height="44" viewBox="0 0 44 44" fill="none" xmlns="http://www.w3.org/2000/svg">
<circle cx="22" cy="22" r="20.5" fill="white" stroke="#A37C64" stroke-width="3"/>
<path d="M15.1251 25.75H14.5001M29.5001 18.25H28.8751M10.7501 15.125C19.5001 17.625 24.5001 12.625 33.2501 15.125V28.875C24.5001 26.375 19.5001 31.375 10.7501 28.875V15.125ZM21.3376 19.0075L21.4601 18.9825C22.257 18.8232 23.0847 18.987 23.7608 19.4379C24.437 19.8889 24.9064 20.5899 25.0657 21.3869C25.225 22.1839 25.0612 23.0115 24.6102 23.6877C24.1593 24.3638 23.4583 24.8332 22.6613 24.9925L22.5401 25.0175C21.75 25.1597 20.9358 24.9863 20.2722 24.5346C19.6087 24.0829 19.1488 23.3889 18.9915 22.6017C18.8341 21.8146 18.9919 20.9971 19.4308 20.325C19.8698 19.653 20.5536 19.1799 21.3376 19.0075Z" stroke="#997058" stroke-width="3" stroke-linecap="round" stroke-linejoin="round"/>
</svg>
