<svg width="44" height="44" viewBox="0 0 44 44" fill="none" xmlns="http://www.w3.org/2000/svg">
<circle cx="22" cy="22" r="20.5" fill="white" stroke="#DC93DD" stroke-width="3"/>
<path d="M23.2248 12.5663C23.2454 11.602 23.8513 11.0208 24.7292 11.0208C25.5194 11.0208 26.1816 11.637 26.2227 12.6013C26.2336 12.8494 26.2392 13.1152 26.2396 13.3988C26.2396 14.7008 24.9709 15.8493 23.2816 15.7991C22.6148 15.7797 21.9477 15.7726 21.2806 15.778C17.1554 15.8094 13.8542 19.0755 13.8542 23.2213C13.8542 27.207 17.0581 30.2236 20.9501 30.3233L21.1042 30.3275V31.2604C21.1046 31.6246 21.0224 31.9842 20.8639 32.3122C20.7054 32.6401 20.4746 32.9279 20.1889 33.1538C20.1459 32.6273 19.9505 32.1247 19.6264 31.7074C19.3024 31.2902 18.8638 30.9763 18.3643 30.8043C17.8648 30.6323 17.326 30.6096 16.8138 30.7389C16.3015 30.8682 15.8381 31.1439 15.48 31.5324C15.122 31.9208 14.8849 32.4052 14.7977 32.9262C14.7105 33.4473 14.777 33.9825 14.989 34.4663C15.2011 34.9502 15.5496 35.3618 15.9918 35.6508C16.434 35.9398 16.9509 36.0937 17.4792 36.0937H18.6875C19.9694 36.0937 21.1988 35.5845 22.1052 34.6781C23.0116 33.7716 23.5209 32.5423 23.5209 31.2604V30.3535C24.2024 30.3503 24.8273 30.3394 25.3956 30.3209C28.3524 30.2285 30.7709 28.0142 30.7709 24.936C30.7709 21.984 28.4261 19.9709 25.6717 19.8392C24.9553 19.8033 24.2381 19.784 23.5209 19.7812C22.707 19.7812 21.9899 19.815 21.3906 19.8616C19.795 19.9842 18.0604 21.1666 18.0435 23.1579C18.0266 25.1347 19.7853 26.2108 21.2504 26.3455C21.7573 26.392 22.3325 26.427 22.9167 26.427H25.3334C25.6538 26.427 25.9612 26.2997 26.1878 26.0731C26.4144 25.8465 26.5417 25.5392 26.5417 25.2187C26.5417 24.8982 26.4144 24.5909 26.1878 24.3643C25.9612 24.1377 25.6538 24.0104 25.3334 24.0104H22.9167C22.4261 24.0104 21.9265 23.9802 21.4709 23.9385C21.1447 23.9083 20.8631 23.782 20.6837 23.6249C20.5188 23.4799 20.4589 23.3331 20.4601 23.1778C20.4632 22.8135 20.8226 22.329 21.5766 22.271C22.1192 22.2287 22.7741 22.1979 23.5209 22.1979C24.154 22.1979 24.8603 22.2202 25.5569 22.2535C27.222 22.3326 28.3542 23.4648 28.3542 24.936C28.3542 26.5914 27.0933 27.8499 25.3201 27.9054C24.6929 27.926 23.9925 27.9367 23.2188 27.9375C22.4756 27.9375 21.7307 27.926 21.0117 27.9073C18.3371 27.8396 16.2709 25.8048 16.2709 23.2213C16.2709 20.424 18.4809 18.2164 21.2987 18.1947C21.936 18.1903 22.5733 18.1972 23.2103 18.2152C25.8584 18.2938 28.6563 16.4359 28.6563 13.3988C28.6559 13.0806 28.6494 12.7805 28.6369 12.4986C28.5481 10.4184 26.9857 8.60413 24.7292 8.60413C22.4515 8.60413 20.8565 10.323 20.8081 12.5131C20.8041 12.7072 20.8021 12.9147 20.8021 13.1354C20.8021 13.4558 20.9294 13.7632 21.156 13.9898C21.3826 14.2164 21.69 14.3437 22.0104 14.3437C22.3309 14.3437 22.6383 14.2164 22.8649 13.9898C23.0915 13.7632 23.2188 13.4558 23.2188 13.1354C23.2188 12.9312 23.2208 12.7415 23.2248 12.5663Z" fill="#C480C5"/>
</svg>
