<svg width="44" height="44" viewBox="0 0 44 44" fill="none" xmlns="http://www.w3.org/2000/svg">
<circle cx="22" cy="22" r="20.5" fill="white" stroke="#6BAC79" stroke-width="3"/>
<g opacity="0.65">
<path d="M35.764 21.2999L33.5762 19.1689C34.0568 18.9567 34.4984 18.6406 34.8688 18.2347C36.3771 16.5818 36.3771 13.8926 34.8688 12.2397C33.3604 10.5868 30.9063 10.5867 29.3978 12.2397C28.9159 12.7677 28.5752 13.4185 28.4001 14.127L27.4712 13.2224C27.2296 12.987 26.8622 12.9988 26.6335 13.2493L20.1836 20.3171C19.955 20.5677 19.9442 20.9702 20.159 21.2351L22.4119 24.0124L16.396 23.6985C15.8453 22.5576 14.7323 21.8088 13.5469 21.8088C13.2095 21.8088 12.936 22.1085 12.936 22.4782V28.1899C12.936 28.5595 13.2094 28.8592 13.5469 28.8592C14.3731 28.8592 15.1863 28.4998 15.7781 27.8732C15.9866 27.6525 16.1635 27.4048 16.3073 27.1387L26.2048 28.688L27.5303 30.3222C27.7604 30.6059 28.1738 30.6192 28.4188 30.3507L35.7901 22.2732C36.0352 22.0049 36.0228 21.552 35.764 21.2999ZM14.9291 26.9106C14.7116 27.141 14.4454 27.313 14.1577 27.4146V23.2592C14.6968 23.4582 15.1625 23.9072 15.3857 24.4839C15.7 25.2952 15.5123 26.2931 14.9291 26.9106ZM29.4894 15.0965C29.5212 14.3755 29.7954 13.6972 30.2616 13.1863C31.2934 12.0554 32.9728 12.0553 34.0049 13.1863C35.0369 14.3172 35.0369 16.1573 34.005 17.2881C33.5897 17.743 33.0675 18.026 32.49 18.1109L29.4805 15.1795C29.4848 15.1524 29.4882 15.1248 29.4894 15.0965ZM21.4547 20.8175L27.0902 14.6422L29.1024 16.6022L23.2433 23.0225L21.4547 20.8175ZM16.7245 25.8519C16.7606 25.5897 16.7701 25.3231 16.7518 25.0574L23.547 25.4119L24.9482 27.1392L16.7245 25.8519ZM28.0131 28.9025L25.7908 26.163L29.1179 22.5172C29.3564 22.2558 29.3564 21.832 29.1179 21.5707C28.8792 21.3093 28.4925 21.3093 28.254 21.5707L24.9778 25.1609L24.0563 24.025L30.0169 17.4933L31.0535 18.5031L30.1407 19.5033C29.9021 19.7647 29.9021 20.1886 30.1407 20.4498C30.3793 20.7113 30.766 20.7113 31.0045 20.4498L31.9682 19.3938L34.4682 21.8289L28.0131 28.9025Z" fill="#1C7F31"/>
<path d="M11.415 30.2413C11.1774 29.9786 10.7906 29.9771 10.5512 30.2374C10.0671 30.7639 9.61743 31.3361 9.21498 31.9384C9.03595 32.2062 9.06692 32.5889 9.28605 32.818C9.5492 33.0932 9.98585 33.0504 10.2006 32.7294C10.5654 32.1836 10.9729 31.6649 11.4118 31.1877C11.6511 30.9275 11.6527 30.5035 11.415 30.2413Z" fill="#1C7F31"/>
<path d="M11.2415 26.9855C11.0377 26.691 10.6547 26.6331 10.3858 26.8566C9.84717 27.304 9.33054 27.7949 8.85009 28.3155C8.61022 28.5755 8.60807 28.9993 8.84518 29.262C8.96465 29.3944 9.12201 29.4608 9.27952 29.4608C9.43465 29.4608 9.59 29.3964 9.70894 29.2674C10.1516 28.7877 10.6275 28.3356 11.1238 27.9233C11.3927 27.7 11.4452 27.2801 11.2415 26.9855Z" fill="#1C7F31"/>
<path d="M10.7046 23.7591C10.5221 23.4483 10.1441 23.3588 9.86038 23.5587C9.29627 23.9569 8.74591 24.394 8.22497 24.8584C8.03488 25.0277 7.95482 25.3133 8.02528 25.5705C8.10188 25.8503 8.34406 26.0469 8.61068 26.0469C8.74606 26.0469 8.88236 25.9978 8.99562 25.8969C9.4819 25.4637 9.9953 25.0556 10.5218 24.6842C10.8054 24.484 10.8872 24.0699 10.7046 23.7591Z" fill="#1C7F31"/>
<path d="M35.764 21.2999L33.5762 19.1689C34.0568 18.9567 34.4984 18.6406 34.8688 18.2347C36.3771 16.5818 36.3771 13.8926 34.8688 12.2397C33.3604 10.5868 30.9063 10.5867 29.3978 12.2397C28.9159 12.7677 28.5752 13.4185 28.4001 14.127L27.4712 13.2224C27.2296 12.987 26.8622 12.9988 26.6335 13.2493L20.1836 20.3171C19.955 20.5677 19.9442 20.9702 20.159 21.2351L22.4119 24.0124L16.396 23.6985C15.8453 22.5576 14.7323 21.8088 13.5469 21.8088C13.2095 21.8088 12.936 22.1085 12.936 22.4782V28.1899C12.936 28.5595 13.2094 28.8592 13.5469 28.8592C14.3731 28.8592 15.1863 28.4998 15.7781 27.8732C15.9866 27.6525 16.1635 27.4048 16.3073 27.1387L26.2048 28.688L27.5303 30.3222C27.7604 30.6059 28.1738 30.6192 28.4188 30.3507L35.7901 22.2732C36.0352 22.0049 36.0228 21.552 35.764 21.2999ZM14.9291 26.9106C14.7116 27.141 14.4454 27.313 14.1577 27.4146V23.2592C14.6968 23.4582 15.1625 23.9072 15.3857 24.4839C15.7 25.2952 15.5123 26.2931 14.9291 26.9106ZM29.4894 15.0965C29.5212 14.3755 29.7954 13.6972 30.2616 13.1863C31.2934 12.0554 32.9728 12.0553 34.0049 13.1863C35.0369 14.3172 35.0369 16.1573 34.005 17.2881C33.5897 17.743 33.0675 18.026 32.49 18.1109L29.4805 15.1795C29.4848 15.1524 29.4882 15.1248 29.4894 15.0965ZM21.4547 20.8175L27.0902 14.6422L29.1024 16.6022L23.2433 23.0225L21.4547 20.8175ZM16.7245 25.8519C16.7606 25.5897 16.7701 25.3231 16.7518 25.0574L23.547 25.4119L24.9482 27.1392L16.7245 25.8519ZM28.0131 28.9025L25.7908 26.163L29.1179 22.5172C29.3564 22.2558 29.3564 21.832 29.1179 21.5707C28.8792 21.3093 28.4925 21.3093 28.254 21.5707L24.9778 25.1609L24.0563 24.025L30.0169 17.4933L31.0535 18.5031L30.1407 19.5033C29.9021 19.7647 29.9021 20.1886 30.1407 20.4498C30.3793 20.7113 30.766 20.7113 31.0045 20.4498L31.9682 19.3938L34.4682 21.8289L28.0131 28.9025Z" stroke="#1C7F31" stroke-width="0.4"/>
<path d="M11.415 30.2413C11.1774 29.9786 10.7906 29.9771 10.5512 30.2374C10.0671 30.7639 9.61743 31.3361 9.21498 31.9384C9.03595 32.2062 9.06692 32.5889 9.28605 32.818C9.5492 33.0932 9.98585 33.0504 10.2006 32.7294C10.5654 32.1836 10.9729 31.6649 11.4118 31.1877C11.6511 30.9275 11.6527 30.5035 11.415 30.2413Z" stroke="#1C7F31" stroke-width="0.4"/>
<path d="M11.2415 26.9855C11.0377 26.691 10.6547 26.6331 10.3858 26.8566C9.84717 27.304 9.33054 27.7949 8.85009 28.3155C8.61022 28.5755 8.60807 28.9993 8.84518 29.262C8.96465 29.3944 9.12201 29.4608 9.27952 29.4608C9.43465 29.4608 9.59 29.3964 9.70894 29.2674C10.1516 28.7877 10.6275 28.3356 11.1238 27.9233C11.3927 27.7 11.4452 27.2801 11.2415 26.9855Z" stroke="#1C7F31" stroke-width="0.4"/>
<path d="M10.7046 23.7591C10.5221 23.4483 10.1441 23.3588 9.86038 23.5587C9.29627 23.9569 8.74591 24.394 8.22497 24.8584C8.03488 25.0277 7.95482 25.3133 8.02528 25.5705C8.10188 25.8503 8.34406 26.0469 8.61068 26.0469C8.74606 26.0469 8.88236 25.9978 8.99562 25.8969C9.4819 25.4637 9.9953 25.0556 10.5218 24.6842C10.8054 24.484 10.8872 24.0699 10.7046 23.7591Z" stroke="#1C7F31" stroke-width="0.4"/>
</g>
</svg>
