<svg width="44" height="44" viewBox="0 0 44 44" fill="none" xmlns="http://www.w3.org/2000/svg">
<circle cx="22" cy="22" r="20.5" fill="white" stroke="#CD6BCA" stroke-width="3"/>
<path opacity="0.65" d="M12 12V28.5M12 28.5V33M12 28.5H33M33 28.5V33M33 28.5V24.3C33 22.6199 33 21.7797 32.7457 21.138C32.522 20.5736 32.165 20.1146 31.726 19.827C31.2269 19.5 30.5734 19.5 29.2667 19.5H21.3333V28.0909M16.6667 22.5H16.6783M17.8333 22.5C17.8333 23.3285 17.311 24 16.6667 24C16.0223 24 15.5 23.3285 15.5 22.5C15.5 21.6716 16.0223 21 16.6667 21C17.311 21 17.8333 21.6716 17.8333 22.5Z" stroke="#B21BAD" stroke-width="3" stroke-linecap="round" stroke-linejoin="round"/>
</svg>
