<svg width="44" height="44" viewBox="0 0 44 44" fill="none" xmlns="http://www.w3.org/2000/svg">
<circle cx="22" cy="22" r="20.5" fill="white" stroke="#C3BA62" stroke-width="3"/>
<path opacity="0.65" d="M32.1657 12.8019C28.8722 9.51566 19.9656 10.9179 15.4414 15.4379C10.9171 19.9578 9.51482 28.8588 12.8035 32.1499C14.3435 33.4424 16.325 34.0879 18.3313 33.9506C22.4857 33.9139 26.4773 32.3322 29.5279 29.514C34.0502 24.994 35.4544 16.093 32.1657 12.8019ZM26.6379 12.8977C28.1371 12.7777 29.6264 13.2271 30.8085 14.1563C31.7823 15.1304 32.1763 17.0164 32.0306 19.1667L25.8002 12.9408C26.0829 12.9226 26.3667 12.8977 26.6379 12.8977ZM14.1608 30.7936C13.1869 29.8214 12.793 27.9355 12.9387 25.7852L19.1691 32.011C17.021 32.1595 15.1337 31.7668 14.1608 30.7936ZM28.1725 28.1596C26.3169 29.9067 24.0214 31.1174 21.5309 31.6624L13.2876 23.4251C13.8342 20.9373 15.0472 18.6446 16.7967 16.7922C18.6553 15.0457 20.9551 13.8384 23.4489 13.3L31.6788 21.5239C31.1335 24.0124 29.9215 26.3061 28.1725 28.1596ZM27.9549 22.1953C27.7752 22.3748 27.5314 22.4757 27.2773 22.4757C27.0231 22.4757 26.7793 22.3748 26.5996 22.1953L25.3602 20.9568L23.84 22.4759L25.0794 23.7144C25.1709 23.8027 25.2439 23.9084 25.2942 24.0253C25.3444 24.1421 25.3708 24.2678 25.3719 24.395C25.3731 24.5222 25.3488 24.6483 25.3006 24.766C25.2524 24.8837 25.1812 24.9907 25.0912 25.0806C25.0012 25.1705 24.8942 25.2417 24.7764 25.2898C24.6586 25.338 24.5324 25.3622 24.4051 25.3611C24.2779 25.36 24.1521 25.3336 24.0351 25.2834C23.9182 25.2332 23.8124 25.1602 23.724 25.0687L22.4846 23.8303L20.9644 25.3494L22.2038 26.5878C22.2953 26.6762 22.3683 26.7819 22.4186 26.8988C22.4688 27.0156 22.4953 27.1413 22.4964 27.2685C22.4975 27.3957 22.4732 27.5218 22.425 27.6395C22.3768 27.7572 22.3057 27.8641 22.2157 27.9541C22.1257 28.044 22.0186 28.1151 21.9008 28.1633C21.783 28.2115 21.6568 28.2357 21.5296 28.2346C21.4023 28.2335 21.2765 28.2071 21.1596 28.1569C21.0426 28.1067 20.9368 28.0337 20.8484 27.9422L17.0143 24.1109C16.8397 23.9303 16.7431 23.6883 16.7453 23.4372C16.7475 23.1861 16.8483 22.9458 17.026 22.7682C17.2037 22.5906 17.4441 22.4899 17.6955 22.4877C17.9468 22.4856 18.1889 22.5821 18.3697 22.7566L19.6091 23.995L21.1293 22.4759L19.8899 21.2375C19.7153 21.0568 19.6187 20.8149 19.6209 20.5637C19.623 20.3126 19.7239 20.0724 19.9016 19.8948C20.0793 19.7172 20.3197 19.6165 20.571 19.6143C20.8223 19.6121 21.0645 19.7086 21.2453 19.8831L22.4846 21.1216L24.0048 19.6025L22.7655 18.364C22.5909 18.1834 22.4943 17.9414 22.4964 17.6903C22.4986 17.4391 22.5994 17.1989 22.7771 17.0213C22.9549 16.8437 23.1953 16.743 23.4466 16.7408C23.6979 16.7386 23.94 16.8352 24.1208 17.0096L27.9549 20.8409C28.1346 21.0205 28.2356 21.2641 28.2356 21.5181C28.2356 21.7721 28.1346 22.0157 27.9549 22.1953Z" fill="#A4950E"/>
</svg>
