<svg width="44" height="44" viewBox="0 0 44 44" fill="none" xmlns="http://www.w3.org/2000/svg">
<circle cx="22" cy="22" r="20.5" fill="white" stroke="#D06B6B" stroke-width="3"/>
<path d="M18.5 33.6667C17.8583 33.6667 17.3092 33.4384 16.8526 32.9819C16.3961 32.5253 16.1674 31.9758 16.1666 31.3334V27.8334H12.6666C12.025 27.8334 11.4759 27.6051 11.0193 27.1485C10.5628 26.692 10.3341 26.1425 10.3333 25.5V18.5C10.3333 17.8584 10.562 17.3093 11.0193 16.8527C11.4766 16.3962 12.0258 16.1675 12.6666 16.1667H16.1666V12.6667C16.1666 12.025 16.3953 11.4759 16.8526 11.0194C17.31 10.5628 17.8591 10.3342 18.5 10.3334H25.5C26.1416 10.3334 26.6911 10.562 27.1485 11.0194C27.6058 11.4767 27.8341 12.0258 27.8333 12.6667V16.1667H31.3333C31.975 16.1667 32.5245 16.3954 32.9818 16.8527C33.4391 17.31 33.6674 17.8592 33.6666 18.5V25.5C33.6666 26.1417 33.4384 26.6912 32.9818 27.1485C32.5253 27.6059 31.9758 27.8342 31.3333 27.8334H27.8333V31.3334C27.8333 31.975 27.605 32.5245 27.1485 32.9819C26.6919 33.4392 26.1424 33.6675 25.5 33.6667H18.5ZM12.6666 20.8334H18.5C18.6944 20.8334 18.8791 20.882 19.0541 20.9792C19.2291 21.0764 19.3653 21.2028 19.4625 21.3584L20.4833 22.875L22.0583 18.15C22.1361 17.9167 22.2769 17.7223 22.4806 17.5667C22.6844 17.4112 22.9131 17.3334 23.1666 17.3334C23.3611 17.3334 23.5458 17.382 23.7208 17.4792C23.8958 17.5764 24.0319 17.7028 24.1291 17.8584L26.1125 20.8334H31.3333V18.5H26.6666C26.3361 18.5 26.0592 18.388 25.836 18.164C25.6128 17.94 25.5008 17.6632 25.5 17.3334V12.6667H18.5V17.3334C18.5 17.6639 18.388 17.9412 18.164 18.1652C17.94 18.3892 17.6631 18.5008 17.3333 18.5H12.6666V20.8334ZM12.6666 23.1667V25.5H17.3333C17.6639 25.5 17.9411 25.612 18.1651 25.836C18.3891 26.06 18.5008 26.3369 18.5 26.6667V31.3334H25.5V26.6667C25.5 26.3362 25.612 26.0593 25.836 25.836C26.06 25.6128 26.3369 25.5008 26.6666 25.5H31.3333V23.1667H25.5C25.3055 23.1667 25.1208 23.1181 24.9458 23.0209C24.7708 22.9237 24.625 22.7973 24.5083 22.6417L23.5166 21.125L21.9416 25.85C21.8639 26.0834 21.718 26.2778 21.5041 26.4334C21.2903 26.5889 21.0569 26.6667 20.8041 26.6667C20.6097 26.6667 20.425 26.6181 20.25 26.5209C20.075 26.4237 19.9389 26.2973 19.8416 26.1417L17.8583 23.1667H12.6666Z" fill="#C85757"/>
</svg>
