<svg width="44" height="44" viewBox="0 0 44 44" fill="none" xmlns="http://www.w3.org/2000/svg">
<circle cx="22" cy="22" r="20.5" fill="white" stroke="#CC9D68" stroke-width="3"/>
<path opacity="0.65" d="M22 20V32M22 32L24.1888 30.5078C24.738 30.1331 25.0128 29.9459 25.3099 29.8133C25.5737 29.6954 25.85 29.6099 26.1334 29.5582C26.4526 29.5 26.7827 29.5 27.4429 29.5H31.0445C31.729 29.5 32.0712 29.5 32.3327 29.3637C32.5627 29.2439 32.7496 29.0527 32.8668 28.8175C33 28.5501 33 28.2001 33 27.5V14C33 13.2999 33 12.9499 32.8668 12.6825C32.7496 12.4473 32.5627 12.2561 32.3327 12.1362C32.0712 12 31.729 12 31.0444 12H29.8222C27.0842 12 25.7152 12 24.6693 12.545C23.7495 13.0243 23.0016 13.7892 22.5329 14.73C22 15.7996 22 17.1997 22 20C22 17.1997 22 15.7996 21.4671 14.73C20.9984 13.7892 20.2505 13.0243 19.3306 12.545C18.2848 12 16.9158 12 14.1778 12H12.9556C12.271 12 11.9288 12 11.6673 12.1362C11.4374 12.2561 11.2504 12.4473 11.1332 12.6825C11 12.9499 11 13.2999 11 14V27.5C11 28.2001 11 28.5501 11.1332 28.8175C11.2504 29.0527 11.4374 29.2439 11.6673 29.3637C11.9288 29.5 12.271 29.5 12.9555 29.5H16.5571C17.2173 29.5 17.5474 29.5 17.8666 29.5582C18.1499 29.6099 18.4263 29.6954 18.6901 29.8133C18.9873 29.9459 19.2619 30.1331 19.8112 30.5078L22 32Z" stroke="#B16917" stroke-width="2.5" stroke-linecap="round" stroke-linejoin="round"/>
</svg>
