<svg width="44" height="44" viewBox="0 0 44 44" fill="none" xmlns="http://www.w3.org/2000/svg">
<circle cx="22" cy="22" r="20.5" fill="white" stroke="#877869" stroke-width="3"/>
<path opacity="0.65" d="M26.3125 14.1042V31.9687M26.3125 14.1042H27.8438C29.9878 14.1042 31.0596 14.1042 31.8786 14.5214C32.5989 14.8884 33.1845 15.474 33.5515 16.1944C33.9687 17.0132 33.9687 18.0852 33.9687 20.2292V25.8438C33.9687 27.9878 33.9687 29.0596 33.5515 29.8786C33.1845 30.5989 32.5989 31.1845 31.8786 31.5515C31.0596 31.9687 29.9878 31.9687 27.8438 31.9687H26.3125M26.3125 14.1042H22.4844M26.3125 31.9687H17.125C14.981 31.9687 13.9091 31.9687 13.0902 31.5515C12.3699 31.1845 11.7843 30.5989 11.4172 29.8786C11 29.0596 11 27.9878 11 25.8438V20.2292C11 18.0852 11 17.0132 11.4172 16.1944C11.7843 15.474 12.3699 14.8884 13.0902 14.5214C13.9091 14.1042 14.981 14.1042 17.125 14.1042H22.4844M30.1406 19.2083H30.1534M30.1406 23.0365H30.1534M30.1406 26.8646H30.1534M28.8646 9L22.4844 14.1042M22.4844 14.1042L16.1042 9" stroke="#462F19" stroke-width="3" stroke-linecap="round" stroke-linejoin="round"/>
</svg>
