<svg width="44" height="44" viewBox="0 0 44 44" fill="none" xmlns="http://www.w3.org/2000/svg">
<circle cx="22" cy="22" r="20.5" fill="white" stroke="#8C8C8C" stroke-width="3"/>
<g opacity="0.65">
<mask id="path-2-outside-1_18_20" maskUnits="userSpaceOnUse" x="6" y="6" width="31" height="31" fill="black">
<rect fill="white" x="6" y="6" width="31" height="31"/>
<path d="M29.4397 36.5312C29.3668 36.5312 29.294 36.5191 29.2231 36.4992L29.0843 36.4273L28.9121 36.4406C28.5882 36.456 28.2644 36.466 27.9396 36.4748L27.7752 36.4804C27.4956 36.4903 27.2171 36.4925 26.9375 36.4925L25.4236 36.4903L24.3763 36.5025C23.6145 36.5113 22.8526 36.5213 22.0897 36.5213C21.3928 36.5213 20.695 36.5136 19.9981 36.4914C19.6752 36.4804 19.3523 36.4671 19.0285 36.4538C18.4527 36.4273 17.8778 36.4029 17.302 36.4007L16.987 36.3985C16.1946 36.3952 15.4013 36.3919 14.6079 36.3753L14.4996 36.4317C14.4357 36.4516 14.3697 36.4605 14.3008 36.4605C13.9258 36.4605 13.5891 36.1784 13.5183 35.8057C13.3785 35.0746 13.2791 34.3324 13.1787 33.5914C13.1275 33.2087 13.0753 32.8271 13.0182 32.4466L12.9956 32.2973C12.8332 31.2178 12.6727 30.1417 12.53 29.0633C12.2347 26.807 12.0142 24.9256 11.838 23.1438L11.7219 21.9249C11.5949 21.9149 11.4738 21.9116 11.3587 21.9116C11.1608 21.9116 10.7888 21.9216 10.7868 21.9216C10.3931 21.9216 10.0485 21.9006 9.70797 21.8574C9.27191 21.8021 8.91264 21.7568 8.57895 21.6163C8.17341 21.446 7.84858 21.2093 7.61235 20.9118C7.39284 20.633 7.27374 20.3112 7.14676 19.9694C6.88296 19.2516 6.97943 18.3679 7.39875 17.6589C7.6281 17.2762 7.95391 16.982 8.36929 16.7851C8.63407 16.6579 8.83192 16.5639 9.05241 16.5186C9.40775 16.4467 9.79459 16.4047 10.27 16.3847C10.4226 16.3803 10.5761 16.3781 10.7287 16.3781L11.8213 16.3892C12.0585 15.8726 12.281 15.4214 12.4729 15.0431C12.7298 14.5443 13.0428 14.0897 13.3431 13.6727C13.6147 13.2923 13.9366 12.9815 14.2427 12.7016C14.6493 12.3311 15.0194 12.0037 15.4446 11.7515C15.6858 11.61 15.9446 11.5027 16.2006 11.3998C16.2006 11.3998 16.6563 11.2085 16.7843 11.1587C17.6938 10.8103 18.6663 10.6886 19.5246 10.5814L19.5925 10.5725L19.6398 10.494C19.5374 10.2529 19.4744 10.0814 19.4272 9.89672C19.3691 9.6744 19.3898 9.44103 19.4144 9.26406C19.4587 8.94552 19.5384 8.69224 19.6536 8.51085C19.9705 8.00539 20.3524 7.63155 20.7885 7.39817C21.0572 7.25439 21.3535 7.14932 21.694 7.07853C21.8929 7.0365 22.0947 7 22.2965 7C22.5228 7.00664 22.7236 7.04977 22.8496 7.10729L22.9845 7.16701C23.0898 7.21125 23.1981 7.2566 23.2857 7.32518C23.5357 7.52426 23.8133 7.77533 23.9728 8.10936C24.0879 8.3549 24.2021 8.59933 24.2592 8.83603C24.4088 9.46426 24.4019 9.98299 24.2385 10.4199C24.2208 10.4663 24.2051 10.515 24.1804 10.5581C24.1864 10.5504 24.2592 10.5603 24.272 10.5614C24.3094 10.5637 24.3468 10.5714 24.3832 10.5769C24.462 10.5891 24.5397 10.6024 24.6185 10.6167C24.772 10.6444 24.9246 10.6776 25.0752 10.7174C25.529 10.8369 25.9562 10.9751 26.345 11.1266C26.7987 11.3069 27.2801 11.5071 27.722 11.7527C28.1295 11.9783 28.5587 12.2271 28.9318 12.528C29.3796 12.8874 29.7625 13.2447 30.1031 13.6174C30.2813 13.811 30.4565 14.0101 30.6307 14.207L31.0402 14.6671C31.2715 14.9203 31.5353 15.2212 31.7282 15.5729C31.8158 15.7289 31.8867 15.8892 31.9566 16.0518L32.1525 16.0806C32.1525 16.0806 32.8218 16.0695 33.0423 16.0695C33.2707 16.0695 33.501 16.0728 33.7303 16.0839C34.3583 16.1149 35.2147 16.2996 35.7265 17.0019C35.887 17.2209 36.0218 17.4521 36.1655 17.7518C36.3004 18.0305 36.4451 18.3634 36.5012 18.7262C36.6616 19.7394 36.1646 20.8996 35.3712 21.3663C34.9883 21.592 34.5286 21.7391 34.004 21.8065C33.6762 21.8475 33.3455 21.8563 33.0157 21.8652L31.7765 21.916L31.682 22.3021C31.6121 22.7987 31.5432 23.2942 31.4821 23.7941C31.3857 24.6435 31.2843 25.493 31.1819 26.3424C31.0431 27.5613 30.9034 28.7823 30.7577 30.0012L30.7341 30.2014C30.6346 31.1083 30.5588 32.0153 30.4821 32.9233C30.4535 33.264 30.4299 33.6036 30.4073 33.9431L30.3659 34.5282C30.5293 34.7118 30.6258 34.8744 30.672 35.0602C30.799 35.5823 30.5214 36.1309 30.0539 36.2802L29.9496 36.3078L29.8541 36.3996C29.73 36.487 29.5873 36.5301 29.4397 36.5312ZM12.8647 18.2163C12.9631 20.3466 13.2181 22.5321 13.4415 24.4588C13.6492 26.1301 13.8953 27.9041 14.1955 29.884C14.2683 30.3684 14.3461 30.8506 14.4248 31.334C14.4937 31.762 14.5636 32.19 14.6286 32.6192L14.7241 33.2718C14.7831 33.6854 14.8432 34.1024 14.9111 34.5138C15.861 34.5857 16.7636 34.6056 17.6672 34.6267L18.8956 34.6543C19.6034 34.6709 20.2402 34.6842 20.8761 34.6842C21.1005 34.6842 21.3249 34.682 21.5494 34.6775C22.1951 34.6665 22.8408 34.6499 23.4875 34.6311L24.3143 34.6078C25.1756 34.5813 26.0388 34.5647 26.8991 34.5503C27.5449 34.5382 28.1345 34.526 28.7211 34.4829L28.8698 33.368C28.9288 32.732 28.9889 32.096 29.0617 31.4612C29.1523 30.6715 29.2527 29.8817 29.354 29.0942C29.5066 27.8842 29.6572 26.6897 29.8216 25.4819L29.9801 24.3206C30.0509 23.7775 30.1287 23.2356 30.2055 22.6947C30.2793 22.1826 30.3541 21.6683 30.421 21.1551C30.4919 20.5412 30.7252 18.3966 30.7252 18.3966L30.0923 18.3446C29.7999 18.348 29.5066 18.3513 29.2143 18.3668C28.7615 18.3911 28.3116 18.4022 27.8598 18.4022L27.4051 18.3977C25.9237 18.3734 24.7848 18.3369 23.7119 18.2761C21.9874 18.1765 20.2589 18.1566 18.493 18.1433L17.7075 18.14C16.8158 18.14 15.924 18.1511 15.0331 18.1621C14.3628 18.171 13.6915 18.1787 13.0222 18.1832L12.9621 18.1721L12.8647 18.2163ZM11.3419 18.0715C10.7966 18.0892 10.2513 18.1057 9.70797 18.1688C9.50224 18.2053 9.30243 18.2595 9.10852 18.338C9.00516 18.3922 8.91165 18.4475 8.82109 18.5117L8.72561 18.6245L8.67541 18.7207C8.64588 18.8114 8.61931 18.9054 8.59864 19.0005C8.5947 19.0691 8.59372 19.1277 8.59568 19.1852C8.61143 19.2616 8.62817 19.3235 8.64588 19.3865C8.69707 19.5049 8.74924 19.6122 8.81027 19.7161C8.91264 19.8057 8.98646 19.8555 9.06324 19.9008C9.29652 19.9893 9.52685 20.0435 9.7621 20.0844C10.1115 20.132 10.4639 20.1774 10.8143 20.1774C11.0752 20.1774 11.2898 20.1574 11.5044 20.1364C11.4866 19.4252 11.4325 18.776 11.3921 18.1245L11.3892 18.0715H11.3419ZM31.9802 20.0192C32.2115 20.0435 32.433 20.0535 32.6486 20.0535C32.9271 20.0535 33.1968 20.0347 33.4665 20.0048C33.7756 19.9484 34.0493 19.871 34.3081 19.7637C34.3997 19.7139 34.4824 19.6619 34.5641 19.6033C34.629 19.5082 34.6763 19.4275 34.7196 19.3423C34.7422 19.2715 34.757 19.2096 34.7717 19.1465L34.7334 18.9552C34.6359 18.724 34.5276 18.505 34.4036 18.3026C34.3741 18.265 34.3131 18.1998 34.3131 18.1998L34.2333 18.15C34.0906 18.0936 33.9518 18.0515 33.8081 18.0184C33.4075 17.9785 33.0088 17.9631 32.6112 17.9487L32.2371 17.9465L31.9802 20.0192ZM15.2261 14.2047C15.0696 14.343 14.915 14.4868 14.7812 14.6494C14.6296 14.8308 14.4868 15.0199 14.3481 15.2157C14.1246 15.5596 13.91 15.9434 13.6699 16.4268L14.4642 16.5153C15.1877 16.5219 15.9112 16.5274 16.6346 16.5274L17.1662 16.5263C18.0304 16.5208 18.8937 16.5042 19.7579 16.4887L20.9351 16.4666L21.4243 16.4633C22.0848 16.4633 22.7433 16.4832 23.4038 16.5031L23.643 16.5097C23.9806 16.5208 24.3202 16.5252 24.6598 16.5252L26.9218 16.5197C27.4927 16.5197 28.0626 16.5153 28.6315 16.4854L30.1523 16.4124C29.9505 16.0153 29.6759 15.7443 29.4111 15.4833L29.228 15.3008C28.9347 15.0088 28.6394 14.7235 28.3353 14.447C27.8628 14.0554 27.3017 13.7004 26.6166 13.3575C25.7367 12.9627 25.0102 12.7226 24.3281 12.5966C23.3822 12.4705 22.4146 12.4373 21.51 12.4196L21.3407 12.4185C20.9076 12.4185 20.4764 12.4439 20.0433 12.4882L19.7136 12.5202C19.3878 12.5501 19.062 12.5822 18.7362 12.6242C18.3483 12.6906 17.9369 12.7636 17.5442 12.8908C17.1642 13.0124 16.7843 13.1617 16.4161 13.3265C16.2202 13.4316 16.0263 13.5422 15.8501 13.6794C15.6789 13.8132 15.5155 13.9559 15.3511 14.0975L15.2261 14.2047ZM22.1636 8.82054C21.9431 8.85925 21.7305 8.91124 21.5228 8.99308C21.3643 9.0871 21.1989 9.20544 21.0779 9.35586C21.0572 9.3813 21.0375 9.40895 21.0267 9.44103C21.0021 9.51403 21.0247 9.59477 21.0523 9.66666C21.1665 9.96861 21.3564 10.213 21.5789 10.421L22.4234 10.4331L22.4795 10.3436C22.5494 10.1909 22.5986 10.0881 22.6449 9.97967C22.6892 9.85137 22.7364 9.71533 22.7217 9.57707C22.704 9.4167 22.6449 9.09373 22.5258 8.98202C22.4362 8.89907 22.3969 8.87363 22.3565 8.8493L22.2463 8.81833L22.1636 8.82054ZM27.1196 33.3282C26.909 33.3282 26.7042 33.233 26.5576 33.0671C26.4296 32.9222 26.3007 32.6645 26.3263 32.4433C26.4109 31.6038 26.5123 30.7666 26.6334 29.9348C26.6875 29.5665 26.7377 29.1949 26.7879 28.8244C26.843 28.4196 26.8972 28.0136 26.9572 27.6121L27.0734 26.8722C27.1521 26.3656 27.2328 25.8602 27.3027 25.3514L27.6836 22.6527C27.7122 22.4525 27.8766 22.2622 28.0173 22.1704C28.1276 22.0974 28.2546 22.0587 28.3845 22.0587C28.4465 22.0587 28.5105 22.0687 28.5754 22.0875C28.7566 22.1428 28.915 22.2788 29.0095 22.4624C29.1158 22.6637 29.1158 22.8628 29.0814 23.0973L29.0213 23.5032C28.9121 24.2409 28.8038 24.9798 28.6867 25.7164C28.5833 26.3634 28.4819 27.0049 28.3992 27.6531L28.1256 29.9802C28.0429 30.708 27.9524 31.5673 27.915 32.4345C27.8913 32.9433 27.5498 33.3282 27.1196 33.3282Z"/>
</mask>
<path d="M29.4397 36.5312C29.3668 36.5312 29.294 36.5191 29.2231 36.4992L29.0843 36.4273L28.9121 36.4406C28.5882 36.456 28.2644 36.466 27.9396 36.4748L27.7752 36.4804C27.4956 36.4903 27.2171 36.4925 26.9375 36.4925L25.4236 36.4903L24.3763 36.5025C23.6145 36.5113 22.8526 36.5213 22.0897 36.5213C21.3928 36.5213 20.695 36.5136 19.9981 36.4914C19.6752 36.4804 19.3523 36.4671 19.0285 36.4538C18.4527 36.4273 17.8778 36.4029 17.302 36.4007L16.987 36.3985C16.1946 36.3952 15.4013 36.3919 14.6079 36.3753L14.4996 36.4317C14.4357 36.4516 14.3697 36.4605 14.3008 36.4605C13.9258 36.4605 13.5891 36.1784 13.5183 35.8057C13.3785 35.0746 13.2791 34.3324 13.1787 33.5914C13.1275 33.2087 13.0753 32.8271 13.0182 32.4466L12.9956 32.2973C12.8332 31.2178 12.6727 30.1417 12.53 29.0633C12.2347 26.807 12.0142 24.9256 11.838 23.1438L11.7219 21.9249C11.5949 21.9149 11.4738 21.9116 11.3587 21.9116C11.1608 21.9116 10.7888 21.9216 10.7868 21.9216C10.3931 21.9216 10.0485 21.9006 9.70797 21.8574C9.27191 21.8021 8.91264 21.7568 8.57895 21.6163C8.17341 21.446 7.84858 21.2093 7.61235 20.9118C7.39284 20.633 7.27374 20.3112 7.14676 19.9694C6.88296 19.2516 6.97943 18.3679 7.39875 17.6589C7.6281 17.2762 7.95391 16.982 8.36929 16.7851C8.63407 16.6579 8.83192 16.5639 9.05241 16.5186C9.40775 16.4467 9.79459 16.4047 10.27 16.3847C10.4226 16.3803 10.5761 16.3781 10.7287 16.3781L11.8213 16.3892C12.0585 15.8726 12.281 15.4214 12.4729 15.0431C12.7298 14.5443 13.0428 14.0897 13.3431 13.6727C13.6147 13.2923 13.9366 12.9815 14.2427 12.7016C14.6493 12.3311 15.0194 12.0037 15.4446 11.7515C15.6858 11.61 15.9446 11.5027 16.2006 11.3998C16.2006 11.3998 16.6563 11.2085 16.7843 11.1587C17.6938 10.8103 18.6663 10.6886 19.5246 10.5814L19.5925 10.5725L19.6398 10.494C19.5374 10.2529 19.4744 10.0814 19.4272 9.89672C19.3691 9.6744 19.3898 9.44103 19.4144 9.26406C19.4587 8.94552 19.5384 8.69224 19.6536 8.51085C19.9705 8.00539 20.3524 7.63155 20.7885 7.39817C21.0572 7.25439 21.3535 7.14932 21.694 7.07853C21.8929 7.0365 22.0947 7 22.2965 7C22.5228 7.00664 22.7236 7.04977 22.8496 7.10729L22.9845 7.16701C23.0898 7.21125 23.1981 7.2566 23.2857 7.32518C23.5357 7.52426 23.8133 7.77533 23.9728 8.10936C24.0879 8.3549 24.2021 8.59933 24.2592 8.83603C24.4088 9.46426 24.4019 9.98299 24.2385 10.4199C24.2208 10.4663 24.2051 10.515 24.1804 10.5581C24.1864 10.5504 24.2592 10.5603 24.272 10.5614C24.3094 10.5637 24.3468 10.5714 24.3832 10.5769C24.462 10.5891 24.5397 10.6024 24.6185 10.6167C24.772 10.6444 24.9246 10.6776 25.0752 10.7174C25.529 10.8369 25.9562 10.9751 26.345 11.1266C26.7987 11.3069 27.2801 11.5071 27.722 11.7527C28.1295 11.9783 28.5587 12.2271 28.9318 12.528C29.3796 12.8874 29.7625 13.2447 30.1031 13.6174C30.2813 13.811 30.4565 14.0101 30.6307 14.207L31.0402 14.6671C31.2715 14.9203 31.5353 15.2212 31.7282 15.5729C31.8158 15.7289 31.8867 15.8892 31.9566 16.0518L32.1525 16.0806C32.1525 16.0806 32.8218 16.0695 33.0423 16.0695C33.2707 16.0695 33.501 16.0728 33.7303 16.0839C34.3583 16.1149 35.2147 16.2996 35.7265 17.0019C35.887 17.2209 36.0218 17.4521 36.1655 17.7518C36.3004 18.0305 36.4451 18.3634 36.5012 18.7262C36.6616 19.7394 36.1646 20.8996 35.3712 21.3663C34.9883 21.592 34.5286 21.7391 34.004 21.8065C33.6762 21.8475 33.3455 21.8563 33.0157 21.8652L31.7765 21.916L31.682 22.3021C31.6121 22.7987 31.5432 23.2942 31.4821 23.7941C31.3857 24.6435 31.2843 25.493 31.1819 26.3424C31.0431 27.5613 30.9034 28.7823 30.7577 30.0012L30.7341 30.2014C30.6346 31.1083 30.5588 32.0153 30.4821 32.9233C30.4535 33.264 30.4299 33.6036 30.4073 33.9431L30.3659 34.5282C30.5293 34.7118 30.6258 34.8744 30.672 35.0602C30.799 35.5823 30.5214 36.1309 30.0539 36.2802L29.9496 36.3078L29.8541 36.3996C29.73 36.487 29.5873 36.5301 29.4397 36.5312ZM12.8647 18.2163C12.9631 20.3466 13.2181 22.5321 13.4415 24.4588C13.6492 26.1301 13.8953 27.9041 14.1955 29.884C14.2683 30.3684 14.3461 30.8506 14.4248 31.334C14.4937 31.762 14.5636 32.19 14.6286 32.6192L14.7241 33.2718C14.7831 33.6854 14.8432 34.1024 14.9111 34.5138C15.861 34.5857 16.7636 34.6056 17.6672 34.6267L18.8956 34.6543C19.6034 34.6709 20.2402 34.6842 20.8761 34.6842C21.1005 34.6842 21.3249 34.682 21.5494 34.6775C22.1951 34.6665 22.8408 34.6499 23.4875 34.6311L24.3143 34.6078C25.1756 34.5813 26.0388 34.5647 26.8991 34.5503C27.5449 34.5382 28.1345 34.526 28.7211 34.4829L28.8698 33.368C28.9288 32.732 28.9889 32.096 29.0617 31.4612C29.1523 30.6715 29.2527 29.8817 29.354 29.0942C29.5066 27.8842 29.6572 26.6897 29.8216 25.4819L29.9801 24.3206C30.0509 23.7775 30.1287 23.2356 30.2055 22.6947C30.2793 22.1826 30.3541 21.6683 30.421 21.1551C30.4919 20.5412 30.7252 18.3966 30.7252 18.3966L30.0923 18.3446C29.7999 18.348 29.5066 18.3513 29.2143 18.3668C28.7615 18.3911 28.3116 18.4022 27.8598 18.4022L27.4051 18.3977C25.9237 18.3734 24.7848 18.3369 23.7119 18.2761C21.9874 18.1765 20.2589 18.1566 18.493 18.1433L17.7075 18.14C16.8158 18.14 15.924 18.1511 15.0331 18.1621C14.3628 18.171 13.6915 18.1787 13.0222 18.1832L12.9621 18.1721L12.8647 18.2163ZM11.3419 18.0715C10.7966 18.0892 10.2513 18.1057 9.70797 18.1688C9.50224 18.2053 9.30243 18.2595 9.10852 18.338C9.00516 18.3922 8.91165 18.4475 8.82109 18.5117L8.72561 18.6245L8.67541 18.7207C8.64588 18.8114 8.61931 18.9054 8.59864 19.0005C8.5947 19.0691 8.59372 19.1277 8.59568 19.1852C8.61143 19.2616 8.62817 19.3235 8.64588 19.3865C8.69707 19.5049 8.74924 19.6122 8.81027 19.7161C8.91264 19.8057 8.98646 19.8555 9.06324 19.9008C9.29652 19.9893 9.52685 20.0435 9.7621 20.0844C10.1115 20.132 10.4639 20.1774 10.8143 20.1774C11.0752 20.1774 11.2898 20.1574 11.5044 20.1364C11.4866 19.4252 11.4325 18.776 11.3921 18.1245L11.3892 18.0715H11.3419ZM31.9802 20.0192C32.2115 20.0435 32.433 20.0535 32.6486 20.0535C32.9271 20.0535 33.1968 20.0347 33.4665 20.0048C33.7756 19.9484 34.0493 19.871 34.3081 19.7637C34.3997 19.7139 34.4824 19.6619 34.5641 19.6033C34.629 19.5082 34.6763 19.4275 34.7196 19.3423C34.7422 19.2715 34.757 19.2096 34.7717 19.1465L34.7334 18.9552C34.6359 18.724 34.5276 18.505 34.4036 18.3026C34.3741 18.265 34.3131 18.1998 34.3131 18.1998L34.2333 18.15C34.0906 18.0936 33.9518 18.0515 33.8081 18.0184C33.4075 17.9785 33.0088 17.9631 32.6112 17.9487L32.2371 17.9465L31.9802 20.0192ZM15.2261 14.2047C15.0696 14.343 14.915 14.4868 14.7812 14.6494C14.6296 14.8308 14.4868 15.0199 14.3481 15.2157C14.1246 15.5596 13.91 15.9434 13.6699 16.4268L14.4642 16.5153C15.1877 16.5219 15.9112 16.5274 16.6346 16.5274L17.1662 16.5263C18.0304 16.5208 18.8937 16.5042 19.7579 16.4887L20.9351 16.4666L21.4243 16.4633C22.0848 16.4633 22.7433 16.4832 23.4038 16.5031L23.643 16.5097C23.9806 16.5208 24.3202 16.5252 24.6598 16.5252L26.9218 16.5197C27.4927 16.5197 28.0626 16.5153 28.6315 16.4854L30.1523 16.4124C29.9505 16.0153 29.6759 15.7443 29.4111 15.4833L29.228 15.3008C28.9347 15.0088 28.6394 14.7235 28.3353 14.447C27.8628 14.0554 27.3017 13.7004 26.6166 13.3575C25.7367 12.9627 25.0102 12.7226 24.3281 12.5966C23.3822 12.4705 22.4146 12.4373 21.51 12.4196L21.3407 12.4185C20.9076 12.4185 20.4764 12.4439 20.0433 12.4882L19.7136 12.5202C19.3878 12.5501 19.062 12.5822 18.7362 12.6242C18.3483 12.6906 17.9369 12.7636 17.5442 12.8908C17.1642 13.0124 16.7843 13.1617 16.4161 13.3265C16.2202 13.4316 16.0263 13.5422 15.8501 13.6794C15.6789 13.8132 15.5155 13.9559 15.3511 14.0975L15.2261 14.2047ZM22.1636 8.82054C21.9431 8.85925 21.7305 8.91124 21.5228 8.99308C21.3643 9.0871 21.1989 9.20544 21.0779 9.35586C21.0572 9.3813 21.0375 9.40895 21.0267 9.44103C21.0021 9.51403 21.0247 9.59477 21.0523 9.66666C21.1665 9.96861 21.3564 10.213 21.5789 10.421L22.4234 10.4331L22.4795 10.3436C22.5494 10.1909 22.5986 10.0881 22.6449 9.97967C22.6892 9.85137 22.7364 9.71533 22.7217 9.57707C22.704 9.4167 22.6449 9.09373 22.5258 8.98202C22.4362 8.89907 22.3969 8.87363 22.3565 8.8493L22.2463 8.81833L22.1636 8.82054ZM27.1196 33.3282C26.909 33.3282 26.7042 33.233 26.5576 33.0671C26.4296 32.9222 26.3007 32.6645 26.3263 32.4433C26.4109 31.6038 26.5123 30.7666 26.6334 29.9348C26.6875 29.5665 26.7377 29.1949 26.7879 28.8244C26.843 28.4196 26.8972 28.0136 26.9572 27.6121L27.0734 26.8722C27.1521 26.3656 27.2328 25.8602 27.3027 25.3514L27.6836 22.6527C27.7122 22.4525 27.8766 22.2622 28.0173 22.1704C28.1276 22.0974 28.2546 22.0587 28.3845 22.0587C28.4465 22.0587 28.5105 22.0687 28.5754 22.0875C28.7566 22.1428 28.915 22.2788 29.0095 22.4624C29.1158 22.6637 29.1158 22.8628 29.0814 23.0973L29.0213 23.5032C28.9121 24.2409 28.8038 24.9798 28.6867 25.7164C28.5833 26.3634 28.4819 27.0049 28.3992 27.6531L28.1256 29.9802C28.0429 30.708 27.9524 31.5673 27.915 32.4345C27.8913 32.9433 27.5498 33.3282 27.1196 33.3282Z" fill="#4F4F4F"/>
<path d="M29.4397 36.5312C29.3668 36.5312 29.294 36.5191 29.2231 36.4992L29.0843 36.4273L28.9121 36.4406C28.5882 36.456 28.2644 36.466 27.9396 36.4748L27.7752 36.4804C27.4956 36.4903 27.2171 36.4925 26.9375 36.4925L25.4236 36.4903L24.3763 36.5025C23.6145 36.5113 22.8526 36.5213 22.0897 36.5213C21.3928 36.5213 20.695 36.5136 19.9981 36.4914C19.6752 36.4804 19.3523 36.4671 19.0285 36.4538C18.4527 36.4273 17.8778 36.4029 17.302 36.4007L16.987 36.3985C16.1946 36.3952 15.4013 36.3919 14.6079 36.3753L14.4996 36.4317C14.4357 36.4516 14.3697 36.4605 14.3008 36.4605C13.9258 36.4605 13.5891 36.1784 13.5183 35.8057C13.3785 35.0746 13.2791 34.3324 13.1787 33.5914C13.1275 33.2087 13.0753 32.8271 13.0182 32.4466L12.9956 32.2973C12.8332 31.2178 12.6727 30.1417 12.53 29.0633C12.2347 26.807 12.0142 24.9256 11.838 23.1438L11.7219 21.9249C11.5949 21.9149 11.4738 21.9116 11.3587 21.9116C11.1608 21.9116 10.7888 21.9216 10.7868 21.9216C10.3931 21.9216 10.0485 21.9006 9.70797 21.8574C9.27191 21.8021 8.91264 21.7568 8.57895 21.6163C8.17341 21.446 7.84858 21.2093 7.61235 20.9118C7.39284 20.633 7.27374 20.3112 7.14676 19.9694C6.88296 19.2516 6.97943 18.3679 7.39875 17.6589C7.6281 17.2762 7.95391 16.982 8.36929 16.7851C8.63407 16.6579 8.83192 16.5639 9.05241 16.5186C9.40775 16.4467 9.79459 16.4047 10.27 16.3847C10.4226 16.3803 10.5761 16.3781 10.7287 16.3781L11.8213 16.3892C12.0585 15.8726 12.281 15.4214 12.4729 15.0431C12.7298 14.5443 13.0428 14.0897 13.3431 13.6727C13.6147 13.2923 13.9366 12.9815 14.2427 12.7016C14.6493 12.3311 15.0194 12.0037 15.4446 11.7515C15.6858 11.61 15.9446 11.5027 16.2006 11.3998C16.2006 11.3998 16.6563 11.2085 16.7843 11.1587C17.6938 10.8103 18.6663 10.6886 19.5246 10.5814L19.5925 10.5725L19.6398 10.494C19.5374 10.2529 19.4744 10.0814 19.4272 9.89672C19.3691 9.6744 19.3898 9.44103 19.4144 9.26406C19.4587 8.94552 19.5384 8.69224 19.6536 8.51085C19.9705 8.00539 20.3524 7.63155 20.7885 7.39817C21.0572 7.25439 21.3535 7.14932 21.694 7.07853C21.8929 7.0365 22.0947 7 22.2965 7C22.5228 7.00664 22.7236 7.04977 22.8496 7.10729L22.9845 7.16701C23.0898 7.21125 23.1981 7.2566 23.2857 7.32518C23.5357 7.52426 23.8133 7.77533 23.9728 8.10936C24.0879 8.3549 24.2021 8.59933 24.2592 8.83603C24.4088 9.46426 24.4019 9.98299 24.2385 10.4199C24.2208 10.4663 24.2051 10.515 24.1804 10.5581C24.1864 10.5504 24.2592 10.5603 24.272 10.5614C24.3094 10.5637 24.3468 10.5714 24.3832 10.5769C24.462 10.5891 24.5397 10.6024 24.6185 10.6167C24.772 10.6444 24.9246 10.6776 25.0752 10.7174C25.529 10.8369 25.9562 10.9751 26.345 11.1266C26.7987 11.3069 27.2801 11.5071 27.722 11.7527C28.1295 11.9783 28.5587 12.2271 28.9318 12.528C29.3796 12.8874 29.7625 13.2447 30.1031 13.6174C30.2813 13.811 30.4565 14.0101 30.6307 14.207L31.0402 14.6671C31.2715 14.9203 31.5353 15.2212 31.7282 15.5729C31.8158 15.7289 31.8867 15.8892 31.9566 16.0518L32.1525 16.0806C32.1525 16.0806 32.8218 16.0695 33.0423 16.0695C33.2707 16.0695 33.501 16.0728 33.7303 16.0839C34.3583 16.1149 35.2147 16.2996 35.7265 17.0019C35.887 17.2209 36.0218 17.4521 36.1655 17.7518C36.3004 18.0305 36.4451 18.3634 36.5012 18.7262C36.6616 19.7394 36.1646 20.8996 35.3712 21.3663C34.9883 21.592 34.5286 21.7391 34.004 21.8065C33.6762 21.8475 33.3455 21.8563 33.0157 21.8652L31.7765 21.916L31.682 22.3021C31.6121 22.7987 31.5432 23.2942 31.4821 23.7941C31.3857 24.6435 31.2843 25.493 31.1819 26.3424C31.0431 27.5613 30.9034 28.7823 30.7577 30.0012L30.7341 30.2014C30.6346 31.1083 30.5588 32.0153 30.4821 32.9233C30.4535 33.264 30.4299 33.6036 30.4073 33.9431L30.3659 34.5282C30.5293 34.7118 30.6258 34.8744 30.672 35.0602C30.799 35.5823 30.5214 36.1309 30.0539 36.2802L29.9496 36.3078L29.8541 36.3996C29.73 36.487 29.5873 36.5301 29.4397 36.5312ZM12.8647 18.2163C12.9631 20.3466 13.2181 22.5321 13.4415 24.4588C13.6492 26.1301 13.8953 27.9041 14.1955 29.884C14.2683 30.3684 14.3461 30.8506 14.4248 31.334C14.4937 31.762 14.5636 32.19 14.6286 32.6192L14.7241 33.2718C14.7831 33.6854 14.8432 34.1024 14.9111 34.5138C15.861 34.5857 16.7636 34.6056 17.6672 34.6267L18.8956 34.6543C19.6034 34.6709 20.2402 34.6842 20.8761 34.6842C21.1005 34.6842 21.3249 34.682 21.5494 34.6775C22.1951 34.6665 22.8408 34.6499 23.4875 34.6311L24.3143 34.6078C25.1756 34.5813 26.0388 34.5647 26.8991 34.5503C27.5449 34.5382 28.1345 34.526 28.7211 34.4829L28.8698 33.368C28.9288 32.732 28.9889 32.096 29.0617 31.4612C29.1523 30.6715 29.2527 29.8817 29.354 29.0942C29.5066 27.8842 29.6572 26.6897 29.8216 25.4819L29.9801 24.3206C30.0509 23.7775 30.1287 23.2356 30.2055 22.6947C30.2793 22.1826 30.3541 21.6683 30.421 21.1551C30.4919 20.5412 30.7252 18.3966 30.7252 18.3966L30.0923 18.3446C29.7999 18.348 29.5066 18.3513 29.2143 18.3668C28.7615 18.3911 28.3116 18.4022 27.8598 18.4022L27.4051 18.3977C25.9237 18.3734 24.7848 18.3369 23.7119 18.2761C21.9874 18.1765 20.2589 18.1566 18.493 18.1433L17.7075 18.14C16.8158 18.14 15.924 18.1511 15.0331 18.1621C14.3628 18.171 13.6915 18.1787 13.0222 18.1832L12.9621 18.1721L12.8647 18.2163ZM11.3419 18.0715C10.7966 18.0892 10.2513 18.1057 9.70797 18.1688C9.50224 18.2053 9.30243 18.2595 9.10852 18.338C9.00516 18.3922 8.91165 18.4475 8.82109 18.5117L8.72561 18.6245L8.67541 18.7207C8.64588 18.8114 8.61931 18.9054 8.59864 19.0005C8.5947 19.0691 8.59372 19.1277 8.59568 19.1852C8.61143 19.2616 8.62817 19.3235 8.64588 19.3865C8.69707 19.5049 8.74924 19.6122 8.81027 19.7161C8.91264 19.8057 8.98646 19.8555 9.06324 19.9008C9.29652 19.9893 9.52685 20.0435 9.7621 20.0844C10.1115 20.132 10.4639 20.1774 10.8143 20.1774C11.0752 20.1774 11.2898 20.1574 11.5044 20.1364C11.4866 19.4252 11.4325 18.776 11.3921 18.1245L11.3892 18.0715H11.3419ZM31.9802 20.0192C32.2115 20.0435 32.433 20.0535 32.6486 20.0535C32.9271 20.0535 33.1968 20.0347 33.4665 20.0048C33.7756 19.9484 34.0493 19.871 34.3081 19.7637C34.3997 19.7139 34.4824 19.6619 34.5641 19.6033C34.629 19.5082 34.6763 19.4275 34.7196 19.3423C34.7422 19.2715 34.757 19.2096 34.7717 19.1465L34.7334 18.9552C34.6359 18.724 34.5276 18.505 34.4036 18.3026C34.3741 18.265 34.3131 18.1998 34.3131 18.1998L34.2333 18.15C34.0906 18.0936 33.9518 18.0515 33.8081 18.0184C33.4075 17.9785 33.0088 17.9631 32.6112 17.9487L32.2371 17.9465L31.9802 20.0192ZM15.2261 14.2047C15.0696 14.343 14.915 14.4868 14.7812 14.6494C14.6296 14.8308 14.4868 15.0199 14.3481 15.2157C14.1246 15.5596 13.91 15.9434 13.6699 16.4268L14.4642 16.5153C15.1877 16.5219 15.9112 16.5274 16.6346 16.5274L17.1662 16.5263C18.0304 16.5208 18.8937 16.5042 19.7579 16.4887L20.9351 16.4666L21.4243 16.4633C22.0848 16.4633 22.7433 16.4832 23.4038 16.5031L23.643 16.5097C23.9806 16.5208 24.3202 16.5252 24.6598 16.5252L26.9218 16.5197C27.4927 16.5197 28.0626 16.5153 28.6315 16.4854L30.1523 16.4124C29.9505 16.0153 29.6759 15.7443 29.4111 15.4833L29.228 15.3008C28.9347 15.0088 28.6394 14.7235 28.3353 14.447C27.8628 14.0554 27.3017 13.7004 26.6166 13.3575C25.7367 12.9627 25.0102 12.7226 24.3281 12.5966C23.3822 12.4705 22.4146 12.4373 21.51 12.4196L21.3407 12.4185C20.9076 12.4185 20.4764 12.4439 20.0433 12.4882L19.7136 12.5202C19.3878 12.5501 19.062 12.5822 18.7362 12.6242C18.3483 12.6906 17.9369 12.7636 17.5442 12.8908C17.1642 13.0124 16.7843 13.1617 16.4161 13.3265C16.2202 13.4316 16.0263 13.5422 15.8501 13.6794C15.6789 13.8132 15.5155 13.9559 15.3511 14.0975L15.2261 14.2047ZM22.1636 8.82054C21.9431 8.85925 21.7305 8.91124 21.5228 8.99308C21.3643 9.0871 21.1989 9.20544 21.0779 9.35586C21.0572 9.3813 21.0375 9.40895 21.0267 9.44103C21.0021 9.51403 21.0247 9.59477 21.0523 9.66666C21.1665 9.96861 21.3564 10.213 21.5789 10.421L22.4234 10.4331L22.4795 10.3436C22.5494 10.1909 22.5986 10.0881 22.6449 9.97967C22.6892 9.85137 22.7364 9.71533 22.7217 9.57707C22.704 9.4167 22.6449 9.09373 22.5258 8.98202C22.4362 8.89907 22.3969 8.87363 22.3565 8.8493L22.2463 8.81833L22.1636 8.82054ZM27.1196 33.3282C26.909 33.3282 26.7042 33.233 26.5576 33.0671C26.4296 32.9222 26.3007 32.6645 26.3263 32.4433C26.4109 31.6038 26.5123 30.7666 26.6334 29.9348C26.6875 29.5665 26.7377 29.1949 26.7879 28.8244C26.843 28.4196 26.8972 28.0136 26.9572 27.6121L27.0734 26.8722C27.1521 26.3656 27.2328 25.8602 27.3027 25.3514L27.6836 22.6527C27.7122 22.4525 27.8766 22.2622 28.0173 22.1704C28.1276 22.0974 28.2546 22.0587 28.3845 22.0587C28.4465 22.0587 28.5105 22.0687 28.5754 22.0875C28.7566 22.1428 28.915 22.2788 29.0095 22.4624C29.1158 22.6637 29.1158 22.8628 29.0814 23.0973L29.0213 23.5032C28.9121 24.2409 28.8038 24.9798 28.6867 25.7164C28.5833 26.3634 28.4819 27.0049 28.3992 27.6531L28.1256 29.9802C28.0429 30.708 27.9524 31.5673 27.915 32.4345C27.8913 32.9433 27.5498 33.3282 27.1196 33.3282Z" stroke="#4F4F4F" stroke-width="0.2" mask="url(#path-2-outside-1_18_20)"/>
</g>
</svg>
