<svg width="44" height="44" viewBox="0 0 44 44" fill="none" xmlns="http://www.w3.org/2000/svg">
<circle cx="22" cy="22" r="20.5" fill="white" stroke="#8A7FD8" stroke-width="3"/>
<path d="M22 13.6316V9M22 13.6316C24.7251 13.6825 26.3702 13.6316 27.4545 13.6316C29.6364 13.6316 31.8182 14.2105 32.9091 18.2632C34 22.3158 34 24.6316 34 27.5263C34 30.4211 31.8182 31 29.6364 31C27.4545 31 26.3047 26.3684 22 26.3684C17.6953 26.3684 16.5455 31 14.3636 31C12.1818 31 10 30.4211 10 27.5263C10 24.6316 10 22.3158 11.0909 18.2632C12.1818 14.2105 14.3636 13.6316 16.5455 13.6316C17.6298 13.6316 19.2749 13.6825 22 13.6316ZM13.2727 20.5789H16.5455M16.5455 20.5789H19.8182M16.5455 20.5789V17.1053M16.5455 20.5789V24.0526M27.4545 21.8375C27.7439 21.8375 28.0214 21.7155 28.2259 21.4984C28.4305 21.2812 28.5455 20.9867 28.5455 20.6796C28.5455 20.3725 28.4305 20.078 28.2259 19.8609C28.0214 19.6437 27.7439 19.5217 27.4545 19.5217C27.1652 19.5217 26.8877 19.6437 26.6832 19.8609C26.4786 20.078 26.3636 20.3725 26.3636 20.6796C26.3636 20.9867 26.4786 21.2812 26.6832 21.4984C26.8877 21.7155 27.1652 21.8375 27.4545 21.8375Z" stroke="#6E65B5" stroke-width="2.7"/>
</svg>
