<svg width="44" height="44" viewBox="0 0 44 44" fill="none" xmlns="http://www.w3.org/2000/svg">
<circle cx="22" cy="22" r="20.5" fill="white" stroke="#9363B1" stroke-width="3"/>
<path opacity="0.65" d="M26.2775 14.0522L29.7345 17.5098M29.7345 17.5098L32.0701 15.1737C33.0247 14.2189 33.0247 12.6709 32.0701 11.7161C31.1155 10.7613 29.5678 10.7613 28.6131 11.7161L14.3767 25.9553C13.3506 26.9816 12.8375 27.4948 12.4411 28.084C12.0893 28.6068 11.8064 29.1728 11.5992 29.7679C11.3658 30.4387 11.2632 31.1571 11.058 32.594L11 33L11.5988 32.8792C12.8876 32.619 13.5325 32.4889 14.1338 32.2522C14.6678 32.042 15.1753 31.7697 15.6459 31.4411C16.1761 31.0708 16.6415 30.6053 17.5724 29.6742L29.7345 17.5098ZM23.2222 32.9995H33" stroke="#590F87" stroke-width="3" stroke-linecap="round" stroke-linejoin="round"/>
</svg>
