<svg width="44" height="44" viewBox="0 0 44 44" fill="none" xmlns="http://www.w3.org/2000/svg">
<circle cx="22" cy="22" r="20.5" fill="white" stroke="#7D7D7D" stroke-width="3"/>
<path d="M27.7095 22.8121L26.6955 18.8543C26.1675 16.7914 25.9035 15.7605 25.2122 15.2421C24.9818 15.0705 24.7225 14.9416 24.4466 14.8617C23.6257 14.6289 22.6945 15.0657 20.8284 15.9381C19.4483 16.5862 18.7571 16.909 18.037 17.1382C17.7866 17.2169 17.5337 17.2873 17.2786 17.3494C16.5454 17.5282 15.7929 17.6086 14.2868 17.7706C12.2539 17.989 11.2387 18.0983 10.6386 18.7283C10.4373 18.9421 10.2748 19.1894 10.1586 19.4591C9.8082 20.2692 10.0722 21.3 10.6014 23.3629L11.6155 27.3195C12.8072 31.971 16.771 33.4351 19.4351 33.8875C20.2476 34.0255 20.6544 34.0939 21.888 33.7483C23.1217 33.4027 23.4409 33.1315 24.0782 32.5866C26.1687 30.8021 28.9024 27.4623 27.7095 22.8121Z" stroke="#595959" stroke-width="2.2"/>
<path d="M27.3999 28.2652C29.488 27.3651 31.5749 25.6766 32.3838 22.5192L33.3978 18.5626C33.9259 16.4997 34.1911 15.4689 33.8419 14.6588C33.7253 14.389 33.5624 14.1417 33.3606 13.928C32.7606 13.298 31.7442 13.1888 29.7124 12.9703C28.2064 12.8083 27.4539 12.7279 26.7207 12.5503C26.4656 12.4874 26.2127 12.4162 25.9623 12.3367C25.2422 12.1087 24.551 11.7847 23.1709 11.1378C21.306 10.2654 20.3736 9.82857 19.5527 10.0614C19.2751 10.1406 19.0199 10.2674 18.7871 10.4418C18.097 10.9602 17.8318 11.9911 17.3038 14.054L16.4637 17.3302" stroke="#595959" stroke-width="2.2"/>
<path d="M13.9099 23.5549C13.9819 22.8109 14.5351 22.1449 15.338 21.9288C16.1408 21.7128 16.9533 22.0153 17.3877 22.6225M30.616 18.3227C30.544 17.5786 29.9908 16.9126 29.1879 16.6978C28.3839 16.4818 27.5726 16.783 27.1382 17.3902M20.8655 21.69C20.9375 20.9472 21.4895 20.28 22.2936 20.0651C23.0976 19.8503 23.9088 20.1516 24.3433 20.7588" stroke="#595959" stroke-width="2.2" stroke-linecap="round"/>
<path d="M20.9147 16.0497C20.8472 16.1489 20.7606 16.2336 20.66 16.2988C20.5593 16.3641 20.4466 16.4085 20.3285 16.4296C20.2104 16.4506 20.0893 16.4479 19.9723 16.4214C19.8553 16.395 19.7447 16.3455 19.6471 16.2757C19.5495 16.206 19.4669 16.1174 19.404 16.0153C19.3411 15.9131 19.2993 15.7994 19.281 15.6809C19.2627 15.5623 19.2683 15.4413 19.2974 15.3249C19.3265 15.2086 19.3786 15.0992 19.4506 15.0032L20.9147 16.0497ZM21.9984 15.7017C21.5447 15.5817 21.1223 15.7593 20.9147 16.0497L19.4506 15.0032C20.1107 14.0792 21.3143 13.6556 22.4652 13.964L21.9984 15.7017ZM22.5732 16.0773C22.4274 15.8933 22.2256 15.7607 21.9984 15.7017L22.4652 13.964C23.0718 14.1254 23.6091 14.4795 23.9953 14.9744L22.5732 16.0773Z" fill="#595959"/>
<path d="M17.1994 28.4416C17.1994 28.4416 18.4282 29.3537 20.574 28.78C22.7185 28.204 23.3269 26.7999 23.3269 26.7999" stroke="#595959" stroke-width="2.2" stroke-linecap="round"/>
</svg>
