<svg width="44" height="44" viewBox="0 0 44 44" fill="none" xmlns="http://www.w3.org/2000/svg">
<circle cx="22" cy="22" r="20.5" fill="white" stroke="#5983FF" stroke-width="3"/>
<g opacity="0.65">
<path d="M34.0489 33H34.0401L30.648 32.9623C30.488 32.9605 30.3333 32.9093 30.2087 32.8167L29.2682 32.1183L29.2114 32.4007C29.1807 32.5534 29.0925 32.6911 28.9624 32.7897C28.8322 32.8883 28.6686 32.9413 28.5002 32.9394L26.0527 32.9112C25.8924 32.9094 25.7375 32.858 25.6127 32.7653L24.5028 31.94L24.3466 32.4161C24.3016 32.5533 24.2094 32.6733 24.0838 32.7579C23.9582 32.8424 23.8062 32.8869 23.6507 32.8845L21.6146 32.8531C21.4978 32.8514 21.3833 32.8233 21.2811 32.7713C19.1504 31.6875 17.6501 29.9284 16.9431 27.6845C16.4143 26.0061 16.5133 24.6468 16.5177 24.5897C16.5308 24.4236 16.6116 24.2683 16.7438 24.1549C16.8761 24.0415 17.05 23.9784 17.2306 23.9785H28.5438C28.6376 23.9785 28.7305 23.9955 28.8172 24.0286C28.9039 24.0617 28.9827 24.1103 29.049 24.1715C29.1154 24.2327 29.168 24.3053 29.2039 24.3852C29.2398 24.4652 29.2583 24.5509 29.2583 24.6374C29.2583 29.2026 34.3327 31.7329 34.3841 31.7581C34.5255 31.8268 34.6379 31.9372 34.7032 32.0717C34.7686 32.2063 34.7831 32.3571 34.7445 32.5002C34.7059 32.6432 34.6164 32.7702 34.4903 32.8608C34.3642 32.9514 34.2088 33.0004 34.0489 33ZM30.913 31.6473L31.7511 31.6567C31.415 31.3959 31.0927 31.1203 30.7854 30.8308C29.9348 30.0275 29.2542 29.1593 28.7639 28.2509C28.261 27.3285 27.9537 26.326 27.8585 25.2973H17.9482C17.9871 25.9966 18.1148 26.6892 18.3286 27.361C18.9255 29.2155 20.098 30.6193 21.8198 31.539L23.1342 31.5588L23.4404 30.6228C23.4743 30.5194 23.5351 30.4253 23.6176 30.3487C23.7002 30.2721 23.8018 30.2154 23.9137 30.1835C24.0256 30.1516 24.1443 30.1456 24.2592 30.166C24.3742 30.1863 24.4821 30.2324 24.5732 30.3002L26.3167 31.5965L27.916 31.6143L28.0813 30.7932C28.1039 30.6811 28.1576 30.5763 28.2372 30.4891C28.3168 30.4019 28.4196 30.3352 28.5356 30.2956C28.6515 30.2559 28.7766 30.2447 28.8986 30.2631C29.0206 30.2814 29.1354 30.3285 29.2318 30.4L30.913 31.6473Z" fill="#0040FF"/>
<path d="M28.5438 25.2973H17.2445C17.1507 25.2973 17.0578 25.2803 16.9711 25.2471C16.8844 25.214 16.8056 25.1655 16.7393 25.1043C16.6729 25.0431 16.6203 24.9705 16.5844 24.8905C16.5485 24.8106 16.53 24.7249 16.53 24.6384V22.6797C16.53 22.5932 16.5485 22.5075 16.5844 22.4276C16.6203 22.3476 16.6729 22.275 16.7393 22.2138C16.8056 22.1526 16.8844 22.1041 16.9711 22.071C17.0578 22.0378 17.1507 22.0208 17.2445 22.0208H28.5438C28.6376 22.0208 28.7305 22.0378 28.8172 22.071C28.9039 22.1041 28.9827 22.1526 29.049 22.2138C29.1154 22.275 29.168 22.3476 29.2039 22.4276C29.2398 22.5075 29.2583 22.5932 29.2583 22.6797V24.6374C29.2583 24.7239 29.2398 24.8106 29.2039 24.8905C29.168 24.9705 29.1154 25.0431 29.049 25.1043C28.9827 25.1655 28.9039 25.214 28.8172 25.2471C28.7305 25.2803 28.6376 25.2973 28.5438 25.2973ZM17.9591 23.9794H27.8292V23.3387H17.9591V23.9794Z" fill="#0040FF"/>
<path d="M25.0659 23.2251C24.9721 23.2251 24.8791 23.208 24.7924 23.1749C24.7057 23.1418 24.627 23.0933 24.5606 23.0321C24.4943 22.9709 24.4416 22.8983 24.4057 22.8183C24.3698 22.7384 24.3513 22.6527 24.3513 22.5661C24.3513 22.2031 24.1949 21.8549 23.9166 21.5982C23.6382 21.3415 23.2606 21.1973 22.8669 21.1973C22.4732 21.1973 22.0957 21.3415 21.8173 21.5982C21.5389 21.8549 21.3825 22.2031 21.3825 22.5661C21.3825 22.7409 21.3072 22.9085 21.1732 23.0321C21.0392 23.1557 20.8575 23.2251 20.668 23.2251C20.4784 23.2251 20.2967 23.1557 20.1627 23.0321C20.0287 22.9085 19.9534 22.7409 19.9534 22.5661C19.9534 21.8536 20.2604 21.1702 20.8068 20.6663C21.3531 20.1625 22.0942 19.8794 22.8669 19.8794C23.6396 19.8794 24.3807 20.1625 24.9271 20.6663C25.4735 21.1702 25.7805 21.8536 25.7805 22.5661C25.7805 22.6527 25.762 22.7384 25.7261 22.8183C25.6901 22.8983 25.6375 22.9709 25.5712 23.0321C25.5048 23.0933 25.426 23.1418 25.3393 23.1749C25.2526 23.208 25.1597 23.2251 25.0659 23.2251Z" fill="#0040FF"/>
<path d="M24.349 21.5278C24.1594 21.5278 23.9777 21.4584 23.8437 21.3348C23.7097 21.2113 23.6344 21.0437 23.6344 20.8689L23.6626 9.02649C23.6626 8.83849 23.5817 8.6582 23.4375 8.52527C23.2933 8.39233 23.0978 8.31765 22.894 8.31765C22.6901 8.31765 22.4946 8.39233 22.3505 8.52527C22.2063 8.6582 22.1253 8.83849 22.1253 9.02649L22.0971 20.8689C22.0971 21.0437 22.0218 21.2113 21.8878 21.3348C21.7538 21.4584 21.572 21.5278 21.3825 21.5278C21.2887 21.5278 21.1958 21.5108 21.1091 21.4777C21.0224 21.4446 20.9436 21.396 20.8772 21.3348C20.8109 21.2737 20.7583 21.201 20.7223 21.1211C20.6864 21.0411 20.668 20.9554 20.668 20.8689L20.6962 9.02649C20.6963 8.48901 20.9278 7.97356 21.34 7.59353C21.7522 7.2135 22.3111 7 22.894 7C23.4768 7 24.0358 7.2135 24.448 7.59353C24.8601 7.97356 25.0917 8.48901 25.0918 9.02649L25.0635 20.8689C25.0635 20.9554 25.045 21.0411 25.0091 21.1211C24.9732 21.201 24.9206 21.2737 24.8542 21.3348C24.7879 21.396 24.7091 21.4446 24.6224 21.4777C24.5357 21.5108 24.4428 21.5278 24.349 21.5278Z" fill="#0040FF"/>
<path d="M16.4881 32.8927H9.48171C9.2922 32.8927 9.11045 32.8233 8.97645 32.6997C8.84244 32.5761 8.76716 32.4085 8.76716 32.2337C8.75197 31.7142 8.84984 31.197 9.05497 30.7129C9.26011 30.2288 9.56835 29.7874 9.96151 29.415C10.3547 29.0425 10.8248 28.7465 11.344 28.5443C11.8633 28.3422 12.4213 28.238 12.9849 28.238C13.5486 28.238 14.1065 28.3422 14.6258 28.5443C15.1451 28.7465 15.6152 29.0425 16.0083 29.415C16.4015 29.7874 16.7097 30.2288 16.9149 30.7129C17.12 31.197 17.2179 31.7142 17.2027 32.2337C17.2027 32.4085 17.1274 32.5761 16.9934 32.6997C16.8594 32.8233 16.6776 32.8927 16.4881 32.8927ZM10.2888 31.5748H15.681C15.5226 31.027 15.1724 30.5429 14.6849 30.1975C14.1974 29.8521 13.5998 29.6649 12.9851 29.6649C12.3703 29.6649 11.7728 29.8521 11.2853 30.1975C10.7978 30.5429 10.4473 31.027 10.2888 31.5748Z" fill="#0040FF"/>
<path d="M29.2583 24.6374C29.2583 24.5509 29.2398 24.4652 29.2039 24.3852C29.168 24.3053 29.1154 24.2327 29.049 24.1715C28.9827 24.1103 28.9039 24.0617 28.8172 24.0286C28.7305 23.9955 28.6376 23.9785 28.5438 23.9785H17.2306C17.05 23.9784 16.8761 24.0415 16.7438 24.1549C16.6116 24.2683 16.5308 24.4236 16.5177 24.5897C16.5133 24.6468 16.4143 26.0061 16.9431 27.6845C17.6501 29.9284 19.1504 31.6875 21.2811 32.7713C21.3833 32.8233 21.4978 32.8514 21.6146 32.8531L23.6507 32.8845C23.8062 32.8869 23.9582 32.8424 24.0838 32.7579C24.2094 32.6733 24.3016 32.5533 24.3466 32.4161L24.5028 31.94L25.6127 32.7653C25.7375 32.858 25.8924 32.9094 26.0527 32.9112L28.5002 32.9394C28.6686 32.9413 28.8322 32.8883 28.9624 32.7897C29.0925 32.6911 29.1807 32.5534 29.2114 32.4007L29.2682 32.1183L30.2087 32.8167C30.3333 32.9093 30.488 32.9605 30.648 32.9623L34.0401 33H34.0489C34.2088 33.0004 34.3642 32.9514 34.4903 32.8608C34.6164 32.7702 34.7059 32.6432 34.7445 32.5002C34.7831 32.3571 34.7686 32.2063 34.7032 32.0717C34.6379 31.9372 34.5255 31.8268 34.3841 31.7581C34.3327 31.7329 29.2583 29.2026 29.2583 24.6374ZM29.2583 24.6374V22.6797C29.2583 22.5932 29.2398 22.5075 29.2039 22.4276C29.168 22.3476 29.1154 22.275 29.049 22.2138C28.9827 22.1526 28.9039 22.1041 28.8172 22.071C28.7305 22.0378 28.6376 22.0208 28.5438 22.0208H17.2445C17.1507 22.0208 17.0578 22.0378 16.9711 22.071C16.8844 22.1041 16.8056 22.1526 16.7393 22.2138C16.6729 22.275 16.6203 22.3476 16.5844 22.4276C16.5485 22.5075 16.53 22.5932 16.53 22.6797V24.6384C16.53 24.7249 16.5485 24.8106 16.5844 24.8905C16.6203 24.9705 16.6729 25.0431 16.7393 25.1043C16.8056 25.1655 16.8844 25.214 16.9711 25.2471C17.0578 25.2803 17.1507 25.2973 17.2445 25.2973H28.5438C28.6376 25.2973 28.7305 25.2803 28.8172 25.2471C28.9039 25.214 28.9827 25.1655 29.049 25.1043C29.1154 25.0431 29.168 24.9705 29.2039 24.8905C29.2398 24.8106 29.2583 24.7239 29.2583 24.6374ZM30.913 31.6473L31.7511 31.6567C31.415 31.3959 31.0927 31.1203 30.7854 30.8308C29.9348 30.0275 29.2542 29.1593 28.7639 28.2509C28.261 27.3285 27.9537 26.326 27.8585 25.2973H17.9482C17.9871 25.9966 18.1148 26.6892 18.3286 27.361C18.9255 29.2155 20.098 30.6193 21.8198 31.539L23.1342 31.5588L23.4404 30.6228C23.4743 30.5194 23.5351 30.4253 23.6176 30.3487C23.7002 30.2721 23.8018 30.2154 23.9137 30.1835C24.0256 30.1516 24.1443 30.1456 24.2592 30.166C24.3742 30.1863 24.4821 30.2324 24.5732 30.3002L26.3167 31.5965L27.916 31.6143L28.0813 30.7932C28.1039 30.6811 28.1576 30.5763 28.2372 30.4891C28.3168 30.4019 28.4196 30.3352 28.5356 30.2956C28.6515 30.2559 28.7766 30.2447 28.8986 30.2631C29.0206 30.2814 29.1354 30.3285 29.2318 30.4L30.913 31.6473ZM17.9591 23.9794H27.8292V23.3387H17.9591V23.9794ZM25.0659 23.2251C24.9721 23.2251 24.8791 23.208 24.7924 23.1749C24.7057 23.1418 24.627 23.0933 24.5606 23.0321C24.4943 22.9709 24.4416 22.8983 24.4057 22.8183C24.3698 22.7384 24.3513 22.6527 24.3513 22.5661C24.3513 22.2031 24.1949 21.8549 23.9166 21.5982C23.6382 21.3415 23.2606 21.1973 22.8669 21.1973C22.4732 21.1973 22.0957 21.3415 21.8173 21.5982C21.5389 21.8549 21.3825 22.2031 21.3825 22.5661C21.3825 22.7409 21.3072 22.9085 21.1732 23.0321C21.0392 23.1557 20.8575 23.2251 20.668 23.2251C20.4784 23.2251 20.2967 23.1557 20.1627 23.0321C20.0287 22.9085 19.9534 22.7409 19.9534 22.5661C19.9534 21.8536 20.2604 21.1702 20.8068 20.6663C21.3531 20.1625 22.0942 19.8794 22.8669 19.8794C23.6396 19.8794 24.3807 20.1625 24.9271 20.6663C25.4735 21.1702 25.7805 21.8536 25.7805 22.5661C25.7805 22.6527 25.762 22.7384 25.7261 22.8183C25.6901 22.8983 25.6375 22.9709 25.5712 23.0321C25.5048 23.0933 25.426 23.1418 25.3393 23.1749C25.2526 23.208 25.1597 23.2251 25.0659 23.2251ZM24.349 21.5278C24.1594 21.5278 23.9777 21.4584 23.8437 21.3348C23.7097 21.2113 23.6344 21.0437 23.6344 20.8689L23.6626 9.02649C23.6626 8.83849 23.5817 8.6582 23.4375 8.52527C23.2933 8.39233 23.0978 8.31765 22.894 8.31765C22.6901 8.31765 22.4946 8.39233 22.3505 8.52527C22.2063 8.6582 22.1253 8.83849 22.1253 9.02649L22.0971 20.8689C22.0971 21.0437 22.0218 21.2113 21.8878 21.3348C21.7538 21.4584 21.572 21.5278 21.3825 21.5278C21.2887 21.5278 21.1958 21.5108 21.1091 21.4777C21.0224 21.4446 20.9436 21.396 20.8772 21.3348C20.8109 21.2737 20.7583 21.201 20.7223 21.1211C20.6864 21.0411 20.668 20.9554 20.668 20.8689L20.6962 9.02649C20.6963 8.48901 20.9278 7.97356 21.34 7.59353C21.7522 7.2135 22.3111 7 22.894 7C23.4768 7 24.0358 7.2135 24.448 7.59353C24.8601 7.97356 25.0917 8.48901 25.0918 9.02649L25.0635 20.8689C25.0635 20.9554 25.045 21.0411 25.0091 21.1211C24.9732 21.201 24.9206 21.2737 24.8542 21.3348C24.7879 21.396 24.7091 21.4446 24.6224 21.4777C24.5357 21.5108 24.4428 21.5278 24.349 21.5278ZM16.4881 32.8927H9.48171C9.2922 32.8927 9.11045 32.8233 8.97645 32.6997C8.84244 32.5761 8.76716 32.4085 8.76716 32.2337C8.75197 31.7142 8.84984 31.197 9.05497 30.7129C9.26011 30.2288 9.56835 29.7874 9.96151 29.415C10.3547 29.0425 10.8248 28.7465 11.344 28.5443C11.8633 28.3422 12.4213 28.238 12.9849 28.238C13.5486 28.238 14.1065 28.3422 14.6258 28.5443C15.1451 28.7465 15.6152 29.0425 16.0083 29.415C16.4015 29.7874 16.7097 30.2288 16.9149 30.7129C17.12 31.197 17.2179 31.7142 17.2027 32.2337C17.2027 32.4085 17.1274 32.5761 16.9934 32.6997C16.8594 32.8233 16.6776 32.8927 16.4881 32.8927ZM10.2888 31.5748H15.681C15.5226 31.027 15.1724 30.5429 14.6849 30.1975C14.1974 29.8521 13.5998 29.6649 12.9851 29.6649C12.3703 29.6649 11.7728 29.8521 11.2853 30.1975C10.7978 30.5429 10.4473 31.027 10.2888 31.5748Z" stroke="#0040FF" stroke-width="0.5"/>
</g>
</svg>
