<svg width="44" height="44" viewBox="0 0 44 44" fill="none" xmlns="http://www.w3.org/2000/svg">
<circle cx="22" cy="22" r="20.5" fill="white" stroke="#6B88DE" stroke-width="3"/>
<path fill-rule="evenodd" clip-rule="evenodd" d="M14.1467 20.4369C14.1467 18.7683 14.8094 17.1681 15.9892 15.9883C17.169 14.8084 18.7691 14.1456 20.4375 14.1456C22.106 14.1456 23.7061 14.8084 24.8859 15.9883C26.0656 17.1681 26.7284 18.7683 26.7284 20.4369C26.7284 22.1054 26.0656 23.7056 24.8859 24.8854C23.7061 26.0653 22.106 26.7281 20.4375 26.7281C18.7691 26.7281 17.169 26.0653 15.9892 24.8854C14.8094 23.7056 14.1467 22.1054 14.1467 20.4369ZM20.4375 11C18.9524 10.9998 17.4882 11.3502 16.164 12.0226C14.8399 12.695 13.6931 13.6705 12.817 14.8697C11.9408 16.069 11.3601 17.4581 11.122 18.924C10.884 20.39 10.9952 21.8915 11.4468 23.3064C11.8984 24.7213 12.6776 26.0096 13.7209 27.0665C14.7642 28.1235 16.0423 28.9192 17.4512 29.3891C18.86 29.8589 20.3598 29.9896 21.8287 29.7704C23.2976 29.5513 24.694 28.9885 25.9043 28.1279L30.3347 32.5585C30.6313 32.845 31.0286 33.0035 31.4409 32.9999C31.8533 32.9964 32.2478 32.8309 32.5394 32.5393C32.831 32.2477 32.9964 31.8532 32.9999 31.4409C33.0035 31.0285 32.845 30.6312 32.5585 30.3345L28.1297 25.9055C29.1336 24.4937 29.7294 22.8328 29.852 21.1048C29.9747 19.3768 29.6193 17.6484 28.8248 16.109C28.0304 14.5695 26.8276 13.2785 25.3481 12.3773C23.8687 11.4762 22.1698 10.9997 20.4375 11Z" fill="#5873C3"/>
</svg>
