<svg width="44" height="44" viewBox="0 0 44 44" fill="none" xmlns="http://www.w3.org/2000/svg">
<circle cx="22" cy="22" r="20.5" fill="white" stroke="#7B7B7B" stroke-width="3"/>
<path fill-rule="evenodd" clip-rule="evenodd" d="M14.3542 16.036C14.3455 16.0535 14.3169 16.1176 14.3134 16.2658C14.2693 18.2793 14.2506 20.2934 14.2574 22.3074C14.2597 24.9242 14.2889 26.694 14.3134 27.7341C14.3169 27.8817 14.3455 27.9465 14.3542 27.964C14.3612 27.978 14.3676 27.9873 14.3892 28.0025C14.4575 28.0491 14.6506 28.125 15.0396 28.125C15.4281 28.125 15.6212 28.0491 15.6889 28.0025C15.7042 27.9935 15.7164 27.98 15.7239 27.964C15.7332 27.9465 15.7618 27.8823 15.7647 27.7341C15.791 26.6538 15.8213 24.7865 15.8213 22C15.8213 19.2134 15.791 17.3461 15.7653 16.2658C15.7618 16.1182 15.7332 16.0535 15.7245 16.036C15.717 16.0199 15.7048 16.0064 15.6895 15.9975C15.6212 15.9508 15.4281 15.875 15.0396 15.875C14.6511 15.875 14.4575 15.9508 14.3898 15.9975C14.3743 16.0064 14.3619 16.0198 14.3542 16.036ZM11.976 27.5731L11.9806 27.7901C12.0028 28.7001 12.3785 29.452 13.0691 29.9257C13.691 30.3527 14.4301 30.4583 15.0396 30.4583C15.6492 30.4583 16.3877 30.3527 17.0096 29.9257C17.7002 29.452 18.0759 28.7007 18.0975 27.7895C18.1138 27.1117 18.1319 26.1358 18.1436 24.8303C20.7147 24.8418 23.2859 24.8399 25.857 24.8245C25.8686 26.1329 25.8861 27.1111 25.9025 27.7901C25.9241 28.7001 26.3003 29.452 26.9904 29.9257C27.6122 30.3527 28.3513 30.4583 28.9609 30.4583C29.5705 30.4583 30.309 30.3527 30.9308 29.9257C31.6215 29.452 31.9971 28.7007 32.0193 27.7895L32.024 27.5731C32.2075 27.605 32.3928 27.621 32.5799 27.621C33.2886 27.621 33.9904 27.3946 34.53 26.8976C35.0777 26.3925 35.3676 25.6907 35.3857 24.9219C35.4026 24.2306 35.4172 23.2675 35.4172 21.9994C35.4172 20.7324 35.4026 19.7687 35.3857 19.0775C35.3671 18.3086 35.0777 17.6075 34.53 17.1017C33.9904 16.6047 33.2886 16.3784 32.5799 16.3784C32.3924 16.3784 32.2071 16.3943 32.024 16.4262L32.0193 16.2104C31.9971 15.2998 31.6215 14.5479 30.9308 14.0742C30.309 13.6472 29.5699 13.5416 28.9609 13.5416C28.3513 13.5416 27.6122 13.6472 26.9904 14.0742C26.3003 14.5479 25.9241 15.2992 25.9025 16.2098C25.8799 17.1984 25.8647 18.1872 25.857 19.176C23.2857 19.1599 20.7143 19.1579 18.143 19.1702C18.1354 18.1833 18.1203 17.1965 18.0975 16.2098C18.0759 15.2998 17.7002 14.5479 17.0096 14.0742C16.3877 13.6472 15.6486 13.5416 15.0391 13.5416C14.4295 13.5416 13.691 13.6472 13.0691 14.0742C12.3785 14.5479 12.0028 15.2992 11.9806 16.2098L11.976 16.4262C11.7926 16.3942 11.6068 16.3782 11.4206 16.3784C10.7113 16.3784 10.0101 16.6047 9.47056 17.1017C8.92223 17.6069 8.6329 18.3092 8.61423 19.0775C8.59225 20.0515 8.58194 21.0257 8.58331 22C8.58331 23.2675 8.5979 24.2306 8.61423 24.9219C8.6329 25.6907 8.92281 26.3925 9.47056 26.8976C10.0101 27.3946 10.7113 27.621 11.4206 27.621C11.6077 27.621 11.7928 27.605 11.976 27.5731ZM11.9235 21.6931V22.3062C11.9232 23.1593 11.9134 24.0124 11.8943 24.8653C11.8885 25.0724 11.8226 25.1511 11.7893 25.182C11.7461 25.2211 11.64 25.2876 11.4206 25.2876C11.2007 25.2876 11.094 25.2211 11.052 25.182C11.0181 25.1505 10.9522 25.0724 10.947 24.8653C10.9306 24.1945 10.9166 23.2495 10.9166 22C10.9166 20.7505 10.9306 19.8055 10.947 19.134C10.9522 18.9275 11.0181 18.8488 11.052 18.8173C11.0946 18.7782 11.2007 18.7123 11.4206 18.7123C11.64 18.7123 11.7461 18.7782 11.7887 18.8173C11.8226 18.8488 11.8891 18.9275 11.8937 19.134C11.9089 19.7495 11.9217 20.5941 11.9241 21.6937M32.0771 22V22.1516C32.0776 23.3265 32.0916 24.2213 32.1074 24.8653C32.1121 25.0724 32.178 25.1511 32.2124 25.182C32.2544 25.2211 32.3611 25.2876 32.5805 25.2876C32.7998 25.2876 32.9066 25.2211 32.9491 25.182C32.983 25.1505 33.0489 25.0724 33.0541 24.8653C33.0699 24.1945 33.0845 23.2495 33.0845 22C33.0845 20.7505 33.0699 19.8055 33.0541 19.134C33.0489 18.9275 32.983 18.8488 32.9491 18.8173C32.9066 18.7782 32.7998 18.7123 32.5805 18.7123C32.3611 18.7123 32.2544 18.7782 32.2124 18.8173C32.178 18.8488 32.1121 18.9275 32.1074 19.134C32.0916 19.778 32.0782 20.6729 32.0771 21.8483V22ZM29.6871 16.2658C29.7122 17.3263 29.7426 19.1451 29.7437 21.8477V22.1522C29.7463 24.013 29.7275 25.8738 29.6871 27.7341C29.6836 27.8817 29.6556 27.9465 29.6463 27.964C29.6385 27.9798 29.6264 27.9932 29.6113 28.0025C29.5431 28.0491 29.3506 28.125 28.9615 28.125C28.5724 28.125 28.3793 28.0491 28.3116 28.0025C28.2966 27.9932 28.2844 27.9798 28.2766 27.964C28.2673 27.9465 28.2393 27.8823 28.2358 27.7341C28.1945 25.823 28.1757 23.9115 28.1792 22C28.1792 19.2134 28.2096 17.3461 28.2358 16.2658C28.2393 16.1182 28.2673 16.0535 28.2766 16.036C28.2844 16.0201 28.2966 16.0067 28.3116 15.9975C28.3793 15.9508 28.5724 15.875 28.9615 15.875C29.3506 15.875 29.5431 15.9508 29.6107 15.9975C29.626 16.0066 29.6384 16.02 29.6463 16.036C29.6556 16.0535 29.6836 16.1176 29.6871 16.2658Z" fill="#616161"/>
</svg>
