<svg width="44" height="44" viewBox="0 0 44 44" fill="none" xmlns="http://www.w3.org/2000/svg">
<circle cx="22" cy="22" r="20.5" fill="white" stroke="#C4B94C" stroke-width="3"/>
<path fill-rule="evenodd" clip-rule="evenodd" d="M15.9012 13.6163L11.2675 18.25L13.115 20.0975L14.1 18.7825C14.8475 17.7862 16.4337 18.3588 16.3712 19.6038L15.88 29.4375C15.8715 29.6066 15.8975 29.7757 15.9563 29.9345C16.0152 30.0933 16.1057 30.2384 16.2224 30.3612C16.339 30.4839 16.4794 30.5817 16.635 30.6485C16.7906 30.7153 16.9581 30.7499 17.1275 30.75H26.8725C27.0418 30.7499 27.2094 30.7153 27.3649 30.6485C27.5205 30.5817 27.6609 30.4839 27.7776 30.3612C27.8942 30.2384 27.9847 30.0933 28.0436 29.9345C28.1025 29.7757 28.1284 29.6066 28.12 29.4375L27.6287 19.6038C27.5662 18.3588 29.1525 17.7862 29.9 18.7825L30.885 20.0975L32.7325 18.25L28.0987 13.6163C27.625 13.1438 26.9375 13.25 26.3312 13.25C25.8923 14.0103 25.2609 14.6416 24.5006 15.0804C23.7403 15.5193 22.8778 15.7502 22 15.75C21.1221 15.7502 20.2596 15.5193 19.4993 15.0804C18.739 14.6416 18.1077 14.0103 17.6687 13.25C17.0612 13.25 16.3737 13.1438 15.9012 13.6163ZM14.1337 11.8487C14.8368 11.1454 15.7905 10.7502 16.785 10.75H18.375C18.965 10.75 19.465 11.1213 19.6625 11.6375C19.8429 12.1113 20.1631 12.5191 20.5805 12.8068C20.9979 13.0945 21.493 13.2486 22 13.2486C22.507 13.2486 23.002 13.0945 23.4194 12.8068C23.8369 12.5191 24.157 12.1113 24.3375 11.6375C24.535 11.1213 25.035 10.75 25.625 10.75H27.215C28.209 10.7505 29.1622 11.1457 29.865 11.8487L34.5 16.4825C34.9686 16.9513 35.2319 17.5871 35.2319 18.25C35.2319 18.9129 34.9686 19.5487 34.5 20.0175L32.6525 21.865C32.0025 22.515 31.095 22.7263 30.2775 22.5225L30.6175 29.3125C30.6429 29.8201 30.5649 30.3275 30.3881 30.804C30.2114 31.2805 29.9397 31.7161 29.5894 32.0844C29.2392 32.4527 28.8177 32.7459 28.3507 32.9462C27.8836 33.1466 27.3807 33.25 26.8725 33.25H17.1275C16.6193 33.25 16.1163 33.1466 15.6493 32.9462C15.1822 32.7459 14.7608 32.4527 14.4105 32.0844C14.0603 31.7161 13.7885 31.2805 13.6118 30.804C13.4351 30.3275 13.3571 29.8201 13.3825 29.3125L13.7225 22.5225C13.3035 22.6274 12.8646 22.6219 12.4483 22.5067C12.0321 22.3915 11.6528 22.1704 11.3475 21.865L9.49997 20.0175C9.03129 19.5487 8.76801 18.9129 8.76801 18.25C8.76801 17.5871 9.03129 16.9513 9.49997 16.4825L14.1337 11.8487Z" fill="#C3B10C"/>
</svg>
